<?xml version="1.0" encoding="UTF-8"?>
<svg id="Layer_1" xmlns="http://www.w3.org/2000/svg" version="1.1" viewBox="0 0 1280 1024">
  <!-- Generator: Adobe Illustrator 29.0.0, SVG Export Plug-In . SVG Version: 2.1.0 Build 186)  -->
  <path d="M853.34,801.14c.98-1.64.42-2.17,3.31-2.65,2.22-.37.94,2.28,4.3.58l-.74,5.48c-2.91-.29-4,1.73-5.84,3.51-.56.76.5,1.35,1.27,1.28.37-.03,6.15-2.74,6.67-3.05,1.36-.82,2.05-3.39,4.23-4.1.95-.31,1.87.33,2.7-.01,1.55-.65,2.63-3.66,3.49-4.16,1.26-.74,2.99-.09,4.36-.48,2.47-.7,6.08-7.47,4.64,2.9,5.55.77,9.51-2.54,14.18-4.16,2.08-.72,8.64-1.75,9.37-2.4,1.2-1.07.15-3.23,1.35-4.18,1.35-1.07,5.83-.72,7.68-1.32,2.4-.79,7.13-3.98,9.48-5.05,2.81-1.29,5.94-.46,8.67-1.02,1.55-.32,5.72-2.08,4.56-3.92-.38-.61-4.47-1.26-5.4-1.86-.21-.13-3.22-3.05-3.52-3.4-.92-1.07-1.34-1.94-1.33-3.39.04-6.27,4.65-4.79,8.74-6.53,1.62-.69,3.24-2.5,4.16-2.76.56-.16,6.17-.78,6.64-.71,2.26.34,5.92,6.21,7.41,1.62l-4.15-2.09c.19-.51,1.4-.76,1.91-.85,8.45-1.49,14.77-.82,23.36-.19,2.42.18,2.99-1.46,6.23.7.6.4,5.1,4.85,5.18,5.21.31,1.37-5.59,3.54-6.74,3.65-2.39.23-5.05-2-7.47-1.97-1.68.02-2.73,1.2-4.18,1.38-2.6.32-5.93-.88-7.91,1.08.06,2.79,18.04,6.12,20.41,1.05,1.41,1.03,1.35,3.48.89,5.03-.8,2.66-6.53,2.35-4.69,8.1,1.39.23,1.83-1.2,3.15-1.4,3.92-.59,4.21,4.06,6.56,5.19,1.05.5,2.36.3,3.42.73,6.77,2.71,8.58,2.84,6.18,11.34l-3.78-1.32,1.07-2.76-5.57,1.11c-1.94-1.72-2.54-3.85-5.83-4.58-1.31.3-.41,3.34-2.08,2.77s-4.48-4.4-5.7-4.73c-1.58-.43-2.84.57-3.9.4-.9-.14-1.8-1.6-3-1.78-1.81-.27-4.25.56-6.78-.88l-20.42,10.11c1.4,1.86,3.79.63,5.73,1.18,1,.28,2.77,2.39,4.34,2.59.76,1.03.33,2.23-.82,2.75-2.22.68-3.38-1.41-4.76-2.7-1.78,2.91-2.86,1.25-4.77,1.45-2.58.27-5.14.36-7.69.62-2.03.21-6.03,1.83-6.94,1.82-.78,0-7.37-5.37-7.3-.09.02,1.25,6.85,6.42,7.65,8.3,6.54.06,7.98.24,11.77,5.53-1.25,1.08-1.99,1.71-2.13,3.45-.71,8.49,2.74,10.96,5.75,17.16,1.5,3.1,2.67,7.29,4.16,10.37.65,1.34,2.04,1.98,2.67,3.57.99,2.49-.24,4.15.43,5.73.74,1.72,2.55,1.96,3.02,2.75.85,1.46.43,3.5.97,5.09,1.55,4.55,8.32,16.93,12.19,19.64.3.21,4.37,2.3,4.63,2.36,1.7.42,3.06-1.43,4.32.47.32,1.71-2.39,1.87-3.46,1.72-.23,4.52,3.04,3.5,4.02,4.29.29.24.17,1.54.85,2.24,2.23,2.3,5.86,3.69,8.25,5.61,2.07,1.66,4.87,7.6,7.69,4.65.56-.59,4.54-7.73,4.63-8.25.24-1.38-1.39-6.55-3.06-7.03-2.31-.67-11.5-.36-12.34-1.51-.64-.87-.37-1.13.33-1.76,2.02.35,4.85-1.47,6.03-1.58.77-.07,1.88,1.16,3.32,1.32,2.7.29,5.55-1.82,7.62.65.82.98.77,2.47,1.45,3.39,1.07,1.45,3.58,1.64,3.75,4.6.07,1.21-2,5.55-2.74,6.71-.54.85-1.9.88-2.66,2.37-1.63,3.21.12,5.56-4.49,7.97-1.43.75-3.12.77-4.44,1.46-.37.19-.48,1.46-1.33,1.74-1.66.56-5.24.19-6.99-.43-3.92-1.38-7.19-10.09-12.24-9.82-4.29.23-4.26,8.02-5.41,11.25-1.95,5.46-4.68,12.28-11.83,10.06-3.84-1.19-3.6-13.43-10.47-3.97-2.54,3.5-2.57,6.05-6.96,8.96-2.11,1.4-4.23,2.66-6.34,4.05-3.9,2.57-7.96,2.81-10.1,7.89-.54,1.29-.31,2.95-.9,3.95-.41.71-2.02,1.17-2.78,2.07-1.5,1.76-3.44,4.86-3.1,7.26.29,2.09,9.14,8.33,11.33,9.49,3.42,1.82,6.96,1.85,9.7,3.45,1.49.87,2.83,3.21,3.93,3.69,1.33.58,2.89.16,4.16.68s7.03,4.25,7.58,3.83c.61-1.83,2.66-5.56,3.84-6.9,2.04-2.33,5.96,4.64,5.83,7.15-.67,12.73-15.72,13-24.2,7.7-7.03-4.39-11.55-6.54-19.35-9.71-4.87-1.98-10.53-8.97-14.98-10.63-6.36-2.37-7.24-.77-12.4-6.98-2.66-3.2-7.23-10.73-10.74-12.79-1.24-.73-3.72-.19-4.85-1.38s-.29-3.55-1.31-4.23-3.48.05-5.18-1.05c-1.37-.89-1.23-2.38-2-3.2-.46-.49-4.29-3.96-4.58-4.06-.68-.22-2.25-.58-2.75-.23-2.94,4.71,3.6,4.98.67,8.5,1.32.95,2.42,3.41,3.44,4.21,2.13,1.67,5.36,1.4,5.51,5.91l-2.06.02c-.98,3.98,3.07,2.79,4.12,5.88.43,1.62-3.97,1.32-4.86,1.44-2.12-2.16-.32-5.82-.76-7.52-.71-2.78-5.42-6.13-7.21-8.07-.93-1.01-.96-2.66-2.09-3.45-2.35-1.65-7.28.54-8.43-4.56,2.54-1.97,2.05-5.07,3.38-7.51,2.28-4.19,7.78-4.63,11.67-6.32-2.7-.77-3.29-4-4.32-5.02-.61-.59-2.02-.57-2.6-1.19-.99-1.06-.48-2.89-1.66-3.89-1.08-.91-4.09-.95-5.92-2.39-1.6-1.26-1.95-3.27-3.01-4.26-2.42-2.26-8.01-2.17-6.72-7.13-1.26.31-1.32,1.12-1.25,2.23.25,4.08,3.9,7.33,3.66,11.65l.77.59c4.9-2.09,3.77,1.16,5.31,2.68.91.9,5.21,1.28,2.26,4.3-1.17-1.63-4.19-.96-5.24-1.68s.15-3.1-2.03-2.45c.11,2.19-.43,4.47-2.74,5.23-5.93,1.95-13.27,2.83-19.23,5-3.83-1.57-7.6,2.51-8.93,2.76-.76.14-1.95-.58-3.2-.41-3.26.45-6.26,4.88-8.83-.5-.74-.42-2.07,2.11-2.77.03-1-2.98,2.74-.53,2.07-3.1-5.55.25-5.53-3.93-9.68-5.56l.38-1.39,12.95-2.22c3.89-2.2,8.06-1.89,11.91-2.63,2.21-.43,2.85-2.72,6.08-1.91,1.09.28,6.65,5.38,7.41.81.3-1.82-8.54-7.6-10.23-9.72-1.52-1.9-10.83-20.41-10.98-22.12-.13-1.49.76-3.44.52-5.47-.35-3.03-3.3-4.84-2.15-9.56,1.97-2.95,11.96-1.75,12.49-4.27.63-3.05-6.58-.05-7.61-1.03.8-3.24.98-7.69,5.21-7.66,4.47.03,5.86,8.79,6.39,12.33.18,1.17-.67,2.27-.26,3.66.58,1.98,3.01,2.31,3.55,3.43s.11,2.62.52,3.64c1.67,4.13,3.84,9.6,5.94,12.72,2.42,3.6,2.52,5.54,2.19,9.96l4.2-.31c.73-.5,1.39-4.47,1.37-5.56-.07-4-6.6-5.51-7.97-8.68-.62-1.42-.22-3.08-.89-4.65-1-2.37-2.74-5.55-4.28-7.54l2.8-5.71c1.01-.71,7.86,1.26,9.18,2.09,2.9,1.83,2.99,6.08,7.18,7.35,2.74.83,11.11,1.85,11.2-2.19l1.44-.42c-1.02,4.01,4.83,6.25,5.86,8.34.77,1.57.84,4.56,1.63,6.68,1.45,3.9,3.86,5.69,5.71,8.83.6,1.03.64,3.08,1.3,3.55,1.02.72,3.15-.01,4.44.41,1.09.35,1.31,2.43,3.18,3.05,3.33,1.12,13.37-.25,13.18,4.14l-4.86,4.11c-4.58,2.08-20.54-6.23-24.89-9.33,1.86,3.62-2.57,7.51-1.82,10.42.38,1.49,1.82,1.46,2.13,2.04,1.19,2.28-.51,4.06,3.82,5.21,3.68.97,3.98-.59,6.63-1.01,11.9-1.9,17.3,12.04,18.69,21.38l14.55,13.15,7.83-10.78c.24-2.49,2.99-5.78,3.41-7.67.76-3.42-.4-10.28,4.31-12.3,3.57-1.53,8.5,1.55,6.26,5.43l1.69,1.15c1.42,0,4.91-5.33,6.12-6.7.74-.84,2.6-1.46,3.27-2.62.85-1.49.35-2.88.81-3.69.28-.5,9.29-5.37,10.06-5.56.96-.23,8.86.75,9.45,1.17l.75,3.54,6.96-13.15c-.7-1.63-3.04-1.69-3.63-2.27-.7-.69-11.15-14.89-11.56-15.78-1.68-3.63-.56-2.96-3.17-6.49-7.01-9.49-16.77-26.09-21.14-37.03-1.92-4.81-2.24-12.16-3.45-17.32l-10.09-5.98c.13-3.77,2.12-6.04,3.51-9.23-2.8-.25-4.9-1-7.8-.53-5.29.86-10.47,3.2-14.48,5.9-.18.12-2.87-.18-4.3.24-1.53.45-9.71,2.72-10.13,3.03-.91.69-.97,3.35-1.38,4.51-4.06-1.73-2.9.16-4.16.99-.94.62-2.45.49-3.68,1.19-1.76,1-2.85,2.8-3.77,3.33-1.82,1.04-7.91,2.78-7.77-.66l-1.33.04c-.53,2.43-5.33,2.05-7.81,2.9-8.59,2.95-16.09,8.08-24.73,11.26-2.14.79-11.24,2.61-12.35,3.23-.82.46-4.81,6.37-5.17,6.6-7.14,4.41-15.54,7.79-23.11,12.53-1.22.77-3.63,1.16-4.6,2.14-.85.85-.5,2.22-1.89,3.14-2.14,1.42-4.34,1.8-7.65,4.12-.65.46-2,.25-2.7.76-1.65,1.18-2.05,6.49-2.73,6.96-.81.54-2.78.11-4.18.67-.91.37-4,3.9-4.86,3.09.4-4.52-7.15-3.75-5.48.96.57,1.6,2.72.4,2.7,1.8-3.73.04-.77,5.35-3.2,6.15l-2.34.08c-1.33-1.33,5.77-10.62-4.15-8.31-.42-1.87,3.23-3.4,3.4-4.59.12-.88-1.32-1.56-1.2-2.53.6-4.71,5.14-3.76,8.2-4.97.71-.28,7.46-3.64,7.86-3.91,1.85-1.26,3.98-5.97,4.58-8.22-1.69-1.68-13.56,13.02-19.4,10.04-2.22-1.13-1.09-6.66-7.86-3.78l-1.46-1.42c-2.8,4.74-4.31,3.17-8.15,4.31-2.12.63-5.74,2.64-7.85,2.59-1.94-.05-.95-2.4-2.69-2.06-2,.76-3.21,7.44-7.24,8.68-2.65.82-7.3-.39-9.03.66-.71.43-1.78,2.74-3.64,3.97-3.09,2.05-6.5,1.5-8.81,4.33,2.24.79,3.28,4.08,4.15,4.83,1.16.99,6.94,1.81,8.99,3.48.98.79.2,1.66-.36,1.73-.3.04-5.23-.7-6.05-.86-3.25-.63-8.28-1.39-11.08-2.08-1.92-.47-4.88-3.77-6.43-4.01-1.49-.23-2.89.63-4.03.5-1.59-.18-2.86-1.22-4.93-1.23-4.52-.01-10.12.72-14.76-.4-2.85-.69-2.05-3.16-6-.93-2.53-.6.77-5.34,1.73-5.88,2.46-1.38,9.91-1.21,12.79-.34,1.28-1.91-3.53-2.93-5.01-3.3-6.83-1.7-12.11-3.44-18.37-5.86-17.08-6.61-37.57-7.68-55.57-9.5-3.55-.36-7.17-.4-10.7-.03,1.07,2.96,3.53,2.3,5.53,3.12,10.01,4.1,21.29,3.44,31.35,6.03,1.83.47,8.36,4.74,7.44,7.45,1.94,1.75,1.9-7.53,6.25-2.94,1.96,2.07-.02,3.43,1.71,5.01.32-.02,2.38-3.29,3.8-1.72l-5.07,3.68c-1.97-.14-2.48-2.63-2.94-2.66-.64-.04-1.89.79-3.32.7-2.52-.16-4.51-2.83-7.35-2.06-.37,2.46,2.32,3.7,2.73,5.91,1.84,9.82-5.68,13.41-12.08,19-.9.79-1.26,2.22-2.04,2.8-1.81,1.35-7.3,1.25-8.34,2.74-1.66,2.38-2.75,11.91-4.02,15.36-1.46,3.99-2.56,4.06-4.11,9.73-3.3,12.04-8.9,17.51-13.16,27.68-1.33,3.18.14,7.4-3.8,9.35-.93.46-3.46.77-3.58.91-.48.56.69,5.12-1.12,5.48-2.36.46-7.23-6.51-5.87-8.99-2.69-.46-5.87,4.44-6.69,4.73-1.85.64-5.85-.12-8.19.12-5.43.56-12.43,2.46-17.86,1.23-2.38-.54-3.62-3.49-5.85-3.9-2.11-.4-3.01,1.04-3.99,1.04-.73,0-1.6-1.02-2.74-1.06-5.07-.18-8.24,4.48-10.93,5.69-2.49,1.11-6.32.72-8.86,1.47-2.36.7-8.59,5.82-11.57,7.12-2.2.97-5.09,1.11-7.41,2.3-1.54-1.46-3.94-1.74-5.59-2.8-3.69-2.39-4.47-6.35-9.66-6.95-2.13-.25-4.79.46-6.79-.13-1.89-.55-6.42-5.43-8.35-5.25-1.62.15-2.64,2.41-4.29,2.64-2.15.31-3.82-1.29-5.85-1.4,1.19,2.25-1.37,2.09-2.12,3.25-.48.73-.3,2-.85,2.77-.12.17-3.07,2.53-3.27,2.62-1.53.69-7.24.25-8.18,1.85-1.11,1.89,1.51,3.6-2.93,7.11-2.49,1.97-6.66,3.99-9.88,3.19-.49-.12-5.2-8.11-5.23-8.64-.04-.63,1.23-8.47,1.48-9.57.59-2.62,2.47-4.88,2.51-7.64-.64-2.61-5.31-.71-6.07-6.43-.69-5.27,1.22-6.98,4.55-10.58l8.53.61,1.38-6.92c-2.5.57-4.99.46-6.57,2.73-2.71-1.58-3.48-5.25-6.57-3.43l2.07-1.38-1.74-2.76c-2.29-.51-1.52,4.67-2.56,5.4-.22.15-4.8,1.49-5.11,1.52-1.65.16-3.31-.97-4.66-.71-.46.09-.35,1.13-.98,1.36-4.19,1.53-4.54-1.36-6.06-1.35l-.7,1.44c-3.85-2.33-3.94-.41-6.88,0-3.96.56-9.68.1-13.89.39-.86.06-3.39-1.64-5.42-1.57-2.73.09-6.2,2.15-9.92,2.26-2.59.08-6.53-1.08-8.9-1.01-1.63.05-2.98,1.33-4.77,1.24-1.45-.07-2.97-1.38-4.23-1.31-.96.05-1.72,1.14-2.79,1.3-10.25,1.57-21.08,1.02-31.02,2.33-1.85.24-6.78,2.54-8.06,2.16-.27-.08-4.45-2.46-4.81-2.75-3.7-2.96-2.81-5.35-.74-9.04,3.05-.2,16.4.56,17.24-2.1.4-1.28-.23-2.83.45-4.39,1.51-3.48,6.64-2.97,9.62-3.53,5.35-.99,3.03-.26,6.94-.02,2.43.15,6.22-1.75,7.77-1.88.93-.08,1.72,1.33,3.28,1.28,1.76-.06,3.51-2.01,5.12-2.58,4.36-1.52,19.36-1.67,24.74-1.63,2.41.02,9.01.22,11.01.77,1.57.43,6.34,4.73,6.55,5.94.14.81-2.1,2.8-1.32,4.4,4.7,1.96,8.8-.76,12.81-.74,3.68.02,9.16,1.22,12.43,1.33,3.02.1,7.73-1.09,10.4-.56,4.74.94,1.65,3.91,1.74,4.46.1.66,1.63,1.35,2.42,1.05,1.7-1.17.92-2.04-.33-3.11l3.42-1.07c-.86-3.92,1.53-6.09,2.63-8.8,1.37-3.4,2.66-10.7,7.1-8.47l.1-3.37c3.65,0,2.08-2.37,3.01-4.25.47-.94,1.88-1.01,2.24-1.56,1.48-2.24.71-6.64,5.12-6.44,0-3.16,6.47-7.36-.78-6.52-.41-1.58,1.74-2.08,1.92-3.19.31-1.93-1.79-4.12,2.23-5.81l-.69,4.49,1.38.34c2.72-2.85-.35-5.2.04-6.48.24-.79,1.95-1.13,2.62-2.29.81-1.4.63-3.86,1.48-5.27,1.79-2.97,2.8-5.06,4.49-8.14,2.58-4.69,5.36-9.21,9.15-13.04l3.69,1.32,1.4-5.54c2.5,1.35,4.98,1.39,3.85,4.88-.28.88-3.37,3.8-.74,3.44,1.95-.27,5.85-3.64,7.7-4.81l1.99,1.32,3.11-6.6,3.46,1.08-1.39-4.15c-5.71,3.86-5.5-1.41-7.76-2.31-1.71-.68-3.54-.12-4.94-.57-.91-.29-.94-1.56-1.65-1.97-6.15-3.63-13.72-4.32-19.55-7.26-.55-.28-3.93-4.72-3.47-5.18l6.27.38,1.68-4.54,3.14,4.14,1.32-.06.49-1.35c3.24-.74,12.23,6.3,15.47,8.01,5.73,3.02,11.67,5.4,17.58,8.03,2.25,1,3.44,2.97,6.25,2.68,2.31-.24,3.99-3.07,6.55-1.27l.2,2.89c.08,1.28,3.24,1.67,3.37.78,1.07-2.59-2.52-7.54-5.04-7.15-.86.13-2.51,1.75-3.22,1.25-.13-.09-.64-1.84-1.78-2.74-3.7-2.92-26.7-15.79-30.79-16.97-2.56-.74-13.48-2.22-15.25-.64-2.77,2.47,1,1.61-5.04,3.26-.96.26-1.33,1.55-2.58,1.22v-4.15s6.22,0,6.22,0c.56-2.05-1.72-1.47-3.14-1.41-5.59.24-11.81,2.64-17.39,2.75-10.71.21-20.91.45-31.73,1.44-3.79.35-7.61,1.25-11.42,1.39-.25,1.11.94.29,1.34,1.2,1.82,4.13-.89,3.82-4.11,2.95l1.37,2.75c-1.97.02-2.47,3.13-4.17,3.85-1.55.65-2.95-1.05-4.17.6-.37.5-2.33,10.12-3.41,8.71l.34-4.15-5.18,3.8c1.54,1.54,4.06.86,3.45,3.8l-3.4.1c.73,2.08-4.39,4.4-5.86,4.09l-.84-1.47-2.35.75c.74-1.67-1.33-2.2-1.4-2.56-.38-1.82,1.49-5.33,2.76-6.65,1.34-1.39,3.05-2.98,4.6-4.56,3-3.06,5.22-2.08,6.18-2.77,1.14-.82,2.38-4.44,3.44-4.92l5.88,2.48c1.32-.69,2.88-5.79,1.39-6.98-3.29-2.32-5.71.67-8.83.87-4.55.29-5.46-1.04-8.52-2.9-.84-.51-2.56-.27-3.12-1.04-.91-1.24.11-4.31-.29-5.83-.24-.92-3.18-.15,1.39-4.23l8.29-2.44c-2.12-.4-6.43.63-8.14-.19-.15-.07-2.2-2.24-2.25-2.39-.52-1.94.91-6.13-.69-7.46-.37-.31-7.75-3.12-8.95-3.51-1.48-.49-3.25-.15-4.91-.63-2.17-.62-4.84-2.89-6.56-3.14-2.09-.3-.38,2.49-.73,4.12-.09.41-1.11,2.55-2.03,2.11-1.3-.62-2.33-9.37-6.86-8.32-.8,2.56-1.91.71-3.43.94-2.72.41-6.71,2.76-8.4-.93-2.05-4.49,3.82-2.58,3.72-5.07-.07-1.82-3.31-1.88-3.74-4.6-.84-.22-5.28,3.95-6.31,4.76-1.77,1.38-2.75,2.28-4.55,3.74-1.92,1.55-4.43,1.46-6.47,2.53-2.6,1.37-2.05,3.33-6.3,3.45-3.54.1-4.07-2.19-6.29-2.62s-2.64,1.2-3.98,1.31c-.47.04-.15-1.38-1.67-1.8-4.74-1.31-14.16.71-11.67-8.78,1.7-6.49,10.48-4.87,11.45-9.31.27-1.23-.12-3.76.23-4.27.21-.31,2.4-.53,3.32-1.18.61-.43,5.52-4.59,5.97-5.1,1.83-2.06,1.66-4.78,3.77-6.62.19-2.4-2.15.01-3.27.24-3.98.81-4.87-1.92-6.91-2.51-2.31-.68-9.92.57-8.43-3.85.15-.45,5.99-5,6.92-5.56,3.22-1.93,10.87-4.23,13.46-6.62,1.42-1.3,1.79-4.36,5.17-5.24.65-.17,3.83,1.98,5.53,1.04-.34-1.44.02-4.42-1.37-5.24-.35-.21-4.28,2.14-5.94-.26-2.41-3.48,6.72-6.64,8.92-7.79.93-.49,1.02-1.79,1.65-1.94,8.29-1.98,8.09-1.61,15.09-6.91,9.18-6.96,16.13-10.29,25.21-16.32,5.25-3.49,8.59-5.61,14-8.84,2.63-1.57,7.7-7.44,8.21-7.71,1.61-.85,4.16-.33,6.21-2.1,4.64-3.98-2.03-15.08-2.92-20.23-3.41.04-6.1-3.65-8.16-4.64-2.77-1.32-8.45-2.99-11-4.92-2.94-2.22-6.75-9.45-9-11.07-1.41-1.01-2.82-.88-3.89-1.65-1.16-.83-1.73-3.29-2.57-4-4.24-3.55-2.52-.57-6.44-6.37-4.36-6.43-7.43-13.47-11.26-19.85-3.11-5.17-3.34-9.76-6.67-14.12-1.37-1.8-5.23-4.78-6.19-6.27-1.36-2.11-1.29-6.3-2.14-8.24-.59-1.34-3.3-2.42-3.69-4.68-.33-1.92,1.1-4.3.59-6.41-6.28,1.04-3.87-3.65-5.17-5.58-.38-.56-3.07-.89-4.35-3.94-.98-2.32-.14-4.06-.25-4.25-.18-.28-2.09-.34-2.56-1.93-.44-1.47.15-3.17-.14-4.58-.11-.53-1.25-.65-1.6-1.32-7.16-13.72-14.61-26.73-22.73-40.22-1.27-2.11-4.23-4.88-5.26-7.2s-.62-7.57-2.23-8.81c-3.3-2.55-2.88-4.25-4.73-8.45-10.29-23.39-21.74-47.75-27.65-72.71-1.89-8-3.54-15.99-5.17-23.9-.39-1.88-2.27-3.33-2.58-5.03-.66-3.54.69-7.25.6-10.28-.11-3.86-3.24-7.58-4.04-11.19-1.46-6.55-2.1-18.39-2.82-25.54-.28-2.73.2-5.32.7-7.97,3.24.45,6.41,2.53,9.68,1.39-.89,3.09-.48,6.17-.76,9.27s-2.26,4.2-.24,7.3c4.85,7.41,8.22-6.79,8-10.69-.09-1.66-2.19-1.16-2.73-2.9-.8-2.56,1.48-5.26.26-7.85-4.42-1.25-9.58-3.12-11.78-7.6-1.87-3.8,1.74-2.2,2.32-3.88s.45-5.44,1.13-7.87c2.37-8.5,5.93-15.65,7.89-24.64,2.17-9.95,4.95-15.59,4.89-26.2-.05-8.33,2.91-8.77,4.7-14.74,1.36-4.53,1.81-7.04,3.47-11.76,2.14-6.1.62-13.84,5.11-19.81,1.14-1.52,5.43-4.54,6-6.46.67-2.29-.22-5.29.84-8.15.5-1.36,1.77-2.21,1.96-2.92.26-.98-.04-5.06.64-8.33s.77-9.15,1.6-11.56c.67-1.94,2.39-2.68,2.62-3.64.28-1.19-.97-2.74-.56-3.94s2.05-.8,2.56-1.29c1.7-1.63,1.31-11.39,7.1-10.21l-2.03-3.2,3.06-3.53c9.7,5.56,2.7-9.53,3.81-10.56,6.07.83,3.15-5.13,4.46-6.97.23-.32,6.65-3.11,7.15-3.23,2.41-.62,5.37-.21,8.02-1.51,1.15.34,5.22,8.42,5.14,9.3-.09.96-2.18,1.32-2.82,2.59-.88,1.73-3.11,12.48-1.86,13.66,3.63.59,2.84-4.12,4-6.73,2.97-6.68,7.57-15.25,9.7-22.14.64-2.09-.31-4.77.45-7.16.87-2.74,4.03-2.58,3.13-7.19-.24-1.23-1.45-1.97-1.38-3.44.07-1.33,1.73-3.57,1.75-5.25l.7-.7c1.23,1.52,5.45,1.21,5.77,1.49.22.18.18,1.63.75,2.33,1.98,2.42,3.32,2.12,2.84,6.24-.22,1.86-2.33,7.25-4.89,6.56l.02,1.36c2.45-.4.65,2.82,2.04,3.86l3.37-.31c.17.87,1.26,1.86,1.38,2.52.41,2.21-2.15,2.13-1.7,4.36.21,1.07,1.39,1.19,1.76,1.89,2.2,4.2,2.94,11.61,4.88,14.16.97,1.28,3.37,1.47,4.03,3.08,2.22,5.45,2.69,11.28,5.56,17.28,3.51,7.31,7.59,14.67,11.89,21.33,1.04,1.61,3.31,5.21,3.34,6.9.04,2.08-1.21,4.19-.43,6.8.18.6,4.87,5.43,5.36,5.62.81.31,4.02-.07,5.43,1.22,1.62,5.77-.86,13.75,6.36,15.45l-2.36,1.02c-1.99.27,4.8,7.83,5.07,8.81.4,1.51-1.7,2.46-1.28,3.91s4.38,2.43,5.56,3.5c1.63,1.49,2.11,4.95,2.92,5.73.59.57,2.68.52,3.25,1.94l-2.77,1.02c-1.05,5.13,4,6.68,6.13,10.84.76,1.48,3.41,8.11,3.59,9.56.23,1.85-.18,3.99-.02,5.9l-4.15-.69-.05,5.11c3.61.71,2.44,2.64,3.67,4.76,2.83,4.9,8.08,18.3,12.05,20.49,4.45,2.45,10.97,2.14,12.38,8.39,1.3,5.8-2.13,5.82-2.98,8.8-.38,1.33.21,3.47-.44,4.41-.61.89-2.74.46-3.85.99-1.67.8-3.32,4.64,0,4.49l.02-2.06c3.19-.8,4.41,2.11,3.85,4.85l-3.85,2.4c.49,1.4,2.95,1.48,3.3,1.88.64.75.29,4.63,1.49,5.78h2.87c.93-.66.46-3.13,1.01-4.52.51-1.28,3.1-3.17,3.62-4.69.92-2.71,2.82-14.08,3.57-15.12s2.67-1.17,3.34-1.85c.74-.75.61-2.76,2.02-3.22l6.46,1.33c-.37,2.12-2.37,3.33-3.28,5.37-.45,1.02-4.19,11.67-4.31,12.31-.47,2.6.76,4.6.69,6.85-.29,10.17-1.75,13.86-.73,24.95.37,4.04-.15,8.76,0,13.15.29,8.38,1.32,15.92,1.39,24.22.08,8.33,1.52,15.78.01,23.57-.7,3.6,1.7,4.49,2.07,7.55.65,5.3-.82,11.89-.75,17.34.06,5.04,1.45,11.63,1.44,16.59,0,2.51-2.11,5.13-2.1,7.6,0,1.75,1.14,3.21,1.35,4.9,1.35,10.82.94,20.57,2.89,31.71.45,2.56,2.3,5.28,1.32,8.72h4.14s.69-2.76.69-2.76c1.96,4.89-.83,9.11-.74,13.49.05,2.25.15,6.12.32,8.19.34,4.1,3.09,9.6.45,12.58,3.8,1.51,2.64,4.3,3.8,6.56.76,1.49,3.47,1.51,3.82,3.84.45,3-1.37,2.44-1.9,3.27-.49.75-.19,2.17-.72,3.09-1.3,2.26-3.81,3-2.93,6.42,1.52-.88,1.99-2.33,3.45-.35v11.77c0,1.59,3.97,2.78,5.57,2.01,1.16,2.46,2.01,5.49.66,8.02l2.35.64c3.24-4.71-3.83-10.18,5.95-10.32l-.11,2.66-2.64,1.14c2.4,2.58,4.44,5.86,3.31,9.56-.85,2.79-5.68,1.49-6.14,4.3,1.69,7.87,4.6,15.21,8.02,22.48,4.36-4.07,10.07,2.53,14.36,1.94,1.29-.18,7.52-3.67,9.29-4.57,1.02-.52,2.03-1.95,2.77-2.12,2.53-.58.55.83,3.84-.99,5.06-2.81,14.46-8.66,19.4-10.34,6.33-2.14,6.4-1.03,12.3-5.69,5.95-4.7,11.08-11.92,17.49-15.74,7.06-4.2,14.87-4.44,21.91-7.85,1.42-.69,2.61-3.23,4.36-3.95,1.58-.65,3.19-.33,4.67-.87,1.97-.71,4.35-2.68,5.35-2.98,2.25-.69,4.2.92,5.92.46.72-.19,4.69-3.09,6.61-3.83s4.82-.81,6.58-1.75c3.4-1.81,1.84-5.06,8.43-4.74,5.57.27,10.2,2.05,16.63,1.46,3.24-.3,7.42-2.36,10.37-2.17,1.79.12,2.46,1.55,4.72,1.43,3.41-.19,8.61-2.97,11.93-3.42,2.27-.3,3.95.67,6.06.62,2.71-.07,5.66-1.73,7.8-2,10.77-1.37,22.43-1.25,33.01-3.61,12.38-2.76,25.78-4.52,38.72-6.98,2.42-.46,5.94-2.25,7.86-2.56,1.12-.18,10.19.56,11.56.83,6.25,1.23,2.76,5.49,3.29,6.04,4.21-.1,2.51,3.11.23,4.77-2.6,1.9-6.02,1.28-8.5,2.57-.59.31-8.22,6.27-9.39,7.22-4.52,3.67-1.06,7.12-.29,2.14l13.03,2.77.06,2.7c2.75.2,4.82.19,7.17-1.32,1.64.52,2.42,3.55,3.67,3.97,1.01.34,10.48,1.47,11.34,1.2.74-.23,2.56-1.99,2.73-1.78l-.68,2.76c2.9,1.06,2.82-1.61,3.89-1.99,2.86-1,3.45,1.41,4.9,1.85,1.89.58,4.45-.15,6.63.29,6.06,1.22,3.01,2.18,10.59,1.29,6.38-.75,28.01,7.58,34.47,11.11,3.32,1.81,7.68,8.02,12.19,9.32,1.73.5,2.89-.48,4.14-.07,2.68.87,9.83,7.32,11.6,7.82,1.72.48,4.61-.36,5.77.46.73.51.6,2.36,1.32,2.84.9.61,2.57.1,3.69.46,2.86.94,4.55,5.49,8.51,4.6l1.02,2.84c6.79-3.18,7.03,2.82,10.39,3.82,1.27.38,2.2-.55,3.92.16,5.41,2.22,5.58,9.91,11.25,10.56.17-1.08,1-3.75,2.44-3.43.62.14,7.72,8.68,6.59,10.37-3.76,1.12-5.59-2.1-7.67-3.05-1.95-.89-5.49-1.42-6.86-2.14-1.75-.92-1.25-5.42-4.86-3.45l.3,7.96c3.73,2.34,7.24,4.8,11.13,6.92,3.05,1.66,4.48,1.65,6.84,2.85,1.87.95,4.86,4.26,7.17,5.29,5.44,2.44,14.82.05,20.65.81,1.41.18,2.91,1.53,3.38,1.42.73-.17,1.08-1.99,1.77-2.43,1.78-1.13,5.51.68,7.54,1.12.42.59-.29,4.77-.8,5.28-.17.17-4.08,2.25-4.32,2.27-1.4.14-4.64-.19-6.99-.07s-5-2-5.12,2.83c4.02-.94,3.91,1.78,5.99,3.36,2.84,2.15,5.24,2.1,7.81,3.27,2.28,1.03,3.41,3.69,4.9,4.79,7.54,5.58,16.37,10.18,24.71,14.75,2.92,1.6,11.8,5.2,13.41,7.38s-.21,4.08,3.74,1.07c1.19.45,3.61,3.75,4,3.96,1.49.78,5.73,1.59,7.96,2.79,1.28.69,1.33,1.91,2.42,2.46,5.31,2.67,9.22,1.53,15,6.4,2.1,1.77,4.99,4.6,4.22,7.42-.19.68-1.39.67-1.68,1.21-.54.99-.4,2.17-1.06,3.13-1.42,2.08-8.5,4.13-11.12,3.77-.22,1.27.13,2.06.65,3.16.92,1.98,6.34,6.09,8.42,7.5,2.53,1.73,5.23,3.16,7.94,4.58l.92-.12c2.91-8.2,17.34-7.5,15.98,2.46-.43,3.16-3.65,7.07-6.71,7.85-1.87.48-3.9-.29-5.71.52-1.21.54-2.68,3.42-3.9,3.64-.84.15-2.1-.66-3.32-.54s-2.19,1.23-3.48,1.3c-2.43.13-5.9-2.42-7.31-1.68-2.68,1.56-3.83,12.21-6.57,12.19-1.52,0-2.25-2.27-3.6-2.67-1.18-.34-4.08.08-4.33-.17-.11-.12,0-1.82-.42-2.67-2.13-4.28-4.43-2.27-5.11-2.87-.23-.2.04-3.91-1.44-5.13-.24-.2-4.84-2.5-5.52-2.79-5.24-2.18-10.64-1.26-15.24-3.45-5.26-2.51-8.33-8.05-15.54-7.27-1.19.13-2,1.66-3.36,1.32-1.53-.38-1.59-3.13-3.6-3.44-1.49-.23-9.07,1.44-5.69,2.97,4.08,1.84,10.12,1.3,12.97,6.06l-18.34-.69c-5.05-.25-8.26-3.83-13.5-2.76-.2-3.69,3.01-7.17,5.98-8.89,1.58-.92,3.5-1.02,5.04-1.88,1.81-1.01,2.65-2.85,5.28-3.72,7.74-2.56,10.44.96,16.74,1.87,2.52.36,4.97-.08,7.41.2,1.32.15,6.56,3.11,7.22.25.79-3.39-2.57-2.84-3.78-3.69-.94-.66-1.44-2.81-2.37-3.87-5.29-6-12.37-6.2-18.25-9.43-1.91-1.05-3.47-3.86-5.31-5.07-3.36-2.2-5.39-2.09-9.31-5.23-2.79-2.23-3.95-.79-3.16-6.6.55-4.03,5.53-5.26,9.04-5.16l-1.74-6.22c-3.43-.98-2.24,5.67-4.14,4.83-7.32-6.98-18.17-7.81-27.36-10.72-2.95-.93-3.11-2.89-7.2-2.38-1.46.18-2.99,1.3-4.24,1.28-1.42-.03-3.03-1.8-4.83-1.33l3.1,2.43c-1.99,2.78-3.37,2.64-6.49,1.77-1.77,5-6.8,4.18-10.61,6.04-1.4.68-2.35,2.47-3.45,2.78-2,.58-4.9-.23-7.13.83-.09-3.78,4.45-4.89,7.61-3.46l.69-6.22c-.28-.26-4.37.49-5.04.84-1.36.72-1.34,2.54-2.85,2.59-.67.02-7.84-.68-8.24-.8-.95-.3-1.5-1.62-2.29-1.78-1.46-.3-6.34,1.2-8.83-.11l-.82.62c.65,4.38-2.91,4.02-3.63,5.07-.32.45.01,1.6-.19,1.79-.42.38-2.14-.13-3.02.12-2.64.76-5.84,1.93-8.5,2.47-3.63.74-6.64-1.15-8.9,3.72-3.66-2.78-3.37-.35-5.68.52-2.05.77-5.24.63-6.4,2.94,2.26.36,4.35-.61,6.54-.72,1.11-.05,2.42.88,3.41.76.46-.06.37-1.27.9-1.41,2.26-.58,8.28,1.05,11.03,1.31,7.06.66,13.92-.33,21.06-2.33,1.97-.55,3.38-2.6,4.63-2.99,4.66-1.43,23.01-3.04,28.2-2.9.93.02,2.15-.78,2.77-.64.86.2.83,1.94,1.5,2.06.59.11,6.96-2.12,9.02-2.11,1.7,0,2.34,1.39,3.96,1.36,1.87-.04,4.03-1.82,6.3-2.09,4.34-.52,8.9.42,13.17.57,1.46.05,4.43-1.53,5.59.09,2.57,3.59-5.63,5.63-7.85,6.09-14.45,2.95-30.41,3.43-44.8,4.35-2.37.15-4.86,1.24-7.28,1.38.62,1.16,2.99.76,4.52,1.35,1.81.71,4.65,3.04,5.66,3.34,2.23.65,5.43-.15,7.81.15-1.71,3.86-6.02,1.38-8.65,1.52-8.81.45-15.76,1.49-24.95,1.21-7.5-.23-13.05-1.49-20.77-1.32-1.63.04-3.48-.8-4.67-.61-.33.05-5.88,2.66-6.1,2.92-1.27,1.52.03,4.86-1.26,5.66-3.37.04-6.21,2.05-9.51,2.33-1.55.13-3.48-.69-4.01-.57-.86.2-.76,1.87-1.51,1.99-.35.05-1.17-.51-1.85-.42-19.37,2.67-37.73-5.59-56.29-7.8-8.31-.99-14.07,3.22-21.72,1.31-.69,5.41-4,2.37-7.91,2.83-2.44.28-4.73,2.03-7.15,2.55-1.71.37-3.51-.06-5.22.32-10.42,2.32-20.49,5.66-31.24,6.02l-2.09-2.05c-3.99.4-4.51,3.69-6.24,4.93-.21.15-4.1,2.44-4.34,2.55-.78.35-4.75,1.61-5.42,1.61-2.19-.01-2.51-1.79-3.59-2.05-.83-.19-1.97.65-2.2.5s-.23-1.57-1.2-1.91c-2.56-.91-7.08,3.28-6.49-4.22-3.03-.66.75,3.65-2.31,3.38-2.08-.18-2.7-3.08-3.92-3.72-9.03-4.68-30.21-4.8-40.45-3.77-3,.3-8.23,2.23-11.77,2.01-1.48-.09-2.82-1.46-4.37-1.87-2.25-.59-10.14-.66-12.15-.05-1.08.33-1.64,1.99-2.89,1.96-.98-.03-1.62-1.26-2.66-1.26-1.45,0-2.98,1.82-4.26,1.88-1.35.06-3.23-1.51-4.13-1.28-.78.2-.85,1.65-1.22,1.88-2.03,1.28-8.12-2.41-10.47-1.95-.35.07-3.72,2.66-6.36,2.84-6.63.44-16.37-2.21-22.05-1.91-2.11.11-3.55,1.87-5.15,2.35-4.52,1.37-10.43,1.81-14.7,3.3-4.34,1.52-7.02,5.19-12.44,3.83l1.04,1.38c-2.52,1.07-4.86,2.5-7.21,3.9-3.74,2.24-4.2,1.53-8.24,2.81-5.56,1.75-14.16,8.88-14.68-2.56l4.85-.7-4.13-1.72c3.04-1.92,5.28-5.1,8.99-3.81-1.18-3.3,1.61-4.12,2.04-.4l1.42.4c-.64-3.44,5.2-3.16,1.69-6.16-5.37,1.85-6.06-.45-7.21-4.91l3.45-.69-9.89.66c-2.45-1.87-2.16-4.92-5.73-4.88-1.27.01-.88,1.3-1.46,1.44-4.71,1.08-20.73,2.54-25.5,2.09-1.54-.14-3.94-1.41-4.75-1.25-.97.2-7.28,4.47-9.41,5.09-2.25.65-13.35,1.1-13.88,3.44.15,2.82,4.2.96,5.24,2.38l-.4,4.18c1.22.22,2.51-.87,3.66-.58.34.08,5.53,3.73,5.68,4.04,1.09,2.26.37,7.2-1.15,9.24-3.34,4.51-13.42,2.96-14.83-2.29-.71-2.62,3.19-10.29-3.79-8.03-5.28,4.74-11.41,8.48-16.92,12.85-3.66,2.9-7.25,5.33-10.96,8.07-2.17,1.6-4.9,4.2-6.72,5.39-2.28,1.49-6.86,1.4-6.2,4.52,2.01.38,3.99-.82,5.88-.74,4.83.2,17.02,4.19,21.3,3.38,5.34-1.02,3.95.27,7.76.18,4.44-.11,11.23-3.6,15.56-4.58,7.16-1.63,11.69-1.9,18.54-1.13,1.9.21,6-1.55,6.42,2.21-5.29-1.35-4.74,6.65-8.48.53-2.06-3.36-2.12,1.14-3.74,2.13-3.37,2.07-12.25,1.77-13.68,2.82-1.73,1.27,3.34,5.12,4.64,5.74,3.35,1.62,10.29,2.26,13.61,4.39.83.53,1.31,2.19,2.46,3.08,1.03.79,5.58,3.3,5.75,3.59.66,1.15-.57,4.15.79,5.1,3.41,1.73,9.38-2.93,12.24-.46.88.76.75,2.41,1.1,2.7.69.55,3.65-.32,3.91,2.69.18,2.09-5.73,3.31-4.73,6.43,2.77,1.09,4.62,1.28,7.55.75l1.17,2.77c2.51.54,3.24-3.08,8.07-.07.7.43.84,1.82,1.59,2,1,.24,3.88-1.39,5.53-1.33,1.52.06,2.41,1.22,4.08,1.46,4.17.59,10.25-.29,14.5-.02,2.46.16,6.01,2.6,8.44,2.71,3.87.16,9.48-1.45,13.78-.63,1.98.38,2.55,2.72,4.15,2.75,1.15.02,2.29-1.33,3.54-1.4,1.58-.09,2.5,1.49,4.09,1.49s2.2-1.36,3.94-1.33c.87.02,8.89,2.6,9.53,3.01.76.5.98,1.76,1.74,2.44,1.05.93,3.1-.04,2.45,2.72,2.25.49,1.8-2.98,3.19-3.43,2.33-.75,6.39,5.5,9.26,5.16,1.88,5.8,6.42,4.33,4.84-1.39l1.38-.35c.1,2.85,8.49,5.63,5.62,8.72-1.16,1.25-3.54.25-2.84,3.04-1.95.66-1.2-1.59-2.5-2.01-1.65-.54-3.36.9-5.13.36-1.64-.5-3.43-3.21-5.46-3.53-1.43-.23-3.08,1.17-5.18,1.01-2.33-.17-3.81-2.22-6.29-2.12-1.52.06-2.79,1.31-3.88,1.13-2.17-.37-4.42-3.04-4.81-5.21-2.34-.16-4.8,4.04-6.6,4.19-1.41.12-2.23-1.18-3.45-1.4-5.82-1.04-10.39-2.31-16.53-2.85-1.2-.1-2.87-1.19-3.54-1.11-.97.12-2.13,3.07-4.79,1.21l-1.08,1.67c3.45,3.99,7.73.2,10.83,4.45l2.67-2.01c2.24,1.22,1.03,2.46,1.28,3.69.18.92.98,1.7,1.03,2.3.1,1.11-1.78,1.87-.99,3,1.48,1.06,6.06,4.55,7.57,4.09,1.27-.39,1.31-3.18,3.21-2.71.24,1.29,1.4,3.84,2.3,4.63,4.14,3.65,9.55,2.87,13.84,3.82,1.69.37,4.04,2.6,6.34,3.35,7.19,2.35,14.21,3.57,21.46,4.85,2.52.44,4.84,4,7.29.31-.85-1.64-3.95-.91-3.45-3.1,3.02-1.71,6.93-.83,9.73-1.7,2.51-.78,2.6-3.84,6.49-3.15,1.05.19,1.83,1.28,2.8,1.33,2.29.13,7.07-2.82,10.74-.65.08-3.01-2.36-1.22-3.94-1.87-1.35-.56-2.22-2.24-3.97-3.02-3.9-1.75-7.35-1.68-10.97-2.17-.35-.05-6.27-2.59-6.55-2.81-.5-.41-1.55-3.08-1.56-3.97.27-.24,6.06.84,7.2.68,1.44-.19,2.69-1.64,4.07-1.29s2.3,2.82,3.75,3.23,3.07-.05,4.56.28c2.17.49,3.07,2.79,4.43,3.18,3.22.92,4.5-.73,6.89,3.49l24.01,2.99,1.85,4.04c1.79.71,1.11-1.23,1.82-1.4,2.6-.63,3.59,1,4.86,1.18,5.46.79,11.47.95,17.22.94,7.44-1.25,15.18.46,22.73.75l2.51,8.21c-1.83-.32-3.64-.87-5.5-1.02-.83-.07-1.36.83-2.13.7-2.78-.47-3.13-3.42-5.51-3.82l-.6,5.07c1.17.35,3.45,3.86,3.71,3.94,3.01.95.19-3.06,4.04-2.11.24.06,1.84,2.7,3.53,3.53,3.32,1.63,3.41-.79,3.26,5.03,1.31,4.07,9.21-2.63,10.96-3.37,2.79-1.18,7.13-1.2,9.74-2.02,1.7-.54,2.65-2.65,3.9-3.02,2.62-.76,5.17.62,8.08-1.61s-2.42-3.8,1.49-6.13l.41,3.05,1.62,1.1c3.28-1.8,6.41-.37,10.08-1.73,1.81-.67,3.19-2.36,5.35-2.95,7.32-2,16.83.23,23.39-3.57l3.78,4.79,1.4-5.53-4.89-1.1,1.55-5c1.65-.95,3.22,1.09,3.7,1.09.74,0,2.18-2.67,3.6-3.13,5.36-1.76,12.75-2.02,17.69-4.46,4.63-2.29,8.43-9.27,13.99-8.14,1.4.28,4.28,3.99,5.84.27.9-2.16-1.83-1.45-2.06-3.38-.61-5.23,3.74-.16,4.71.17,1.2.41,9.32,1.32,9.84.82.33-1.99.4-6.78,2.47-7.57,1.64-.63.92,2.92,2.4,3.83,3.19,1.96,4.95-2.57,6.57-3.86.71-.56,8.35-5.7,9.11-6.12,1.88-1.03,4.61-.87,6.17-2.14s1.54-4.15,4.14-4.86c2.19-.6-.17,3.24,2.05,2.75,2.66-1.11,3.79-6.15,4.47-6.61,1.26-.85,2.94.18,4.27,0,2.04-.26,2.47-2.03,3.2-2.35,1.14-.49,3.91.65,3.63-2.11l-3.45-1.03c.34-1.21,5.65-2.4,6.92-2.43-.48.8-.87,1.69-1.29,2.53l1.62,1.62c1.44-1.18,1.79-2.47.98-4.11-.43-.14-.88-.05-1.32-.04ZM337.58,215.65c-3.49-2.46-2.81-5.27-4.1-8.01-5.45-11.61-12.84-23.43-18.31-34.98-1.83-3.87-2.64-8.63-4.24-12.37-.74-1.73-6.57-13.07-7.27-13.5-1.94-1.2-5.37,2.19-5.52,2.92-.82,3.96-2.66,13.27-4.69,16.64-1.09,1.81-2.49,1.35-3.27,2.27s-.75,3.06-1.23,4.31c-1.23,3.2-2.53,5.85-4.01,9.15-1.67,3.72-2.03,5.57-1.97,9.65l-4.23.42.6,5.06c-.36,1.47-2.81,1.71-3.25,3.01-.64,1.88.4,4.79-.23,6.72-.29.88-1.55.95-1.98,1.64-.69,1.12-3.93,5.86-4.03,6.22-.65,2.36,1.24,3.2,1.81,4.87.3.87.02,2.77.18,2.92.22.21,1.57-.18,2.24.02s.52,1.18.63,1.23c1.79.91,3.09-3.18,3.83-3.35,1.41-.33,3.48.72,5.28.68s6.56-1.94,6.92-1.9c2.88.28,2.22,2.48,6.65-.51,7-4.73,8.67-4.83,16.84-5.99,4.23-.6,4.26-2.64,7.17,2.85,2.81,1.11,2.24-1.88,4.05-2.04l12.13,2.11ZM273.79,153.97c.93-1.59-1.55-3.94-3.36-3.37v4.84s3.36-1.47,3.36-1.47ZM286.35,162.36l-.34-7.6c-3.3,1.85-4.15,3.94-3.08,7.57l3.42.04ZM268.71,160.99c-2.6.57-1.4,4.59.67,4.15,1.68-.36,1.38-4.59-.67-4.15ZM341.04,219.12l-5.19,4.84c-1.16,1.63.3,5.79,1.74,6.57,1.64.89,4.82-.1,5.44.46.36.33.95,4.61,3.55,4.05.3-3.17-3.58-4.15-4.53-6.89-.84-2.44-.92-6.39-1.01-9.02ZM247.58,226.73c-2.42-.5-2.37,2.82-2.95,3.32-.49.43-1.75,0-1.89.14-.66.61,1.25,3.49,1.38,4.56.04.31,0,5.1-.08,5.36-.43,1.43-4.2,1.69-1.99,6.69l3.16-5.49c.9-2.92-.24-6.59.3-9.39.35-1.8,2.86-2.71,2.06-5.2ZM369.42,240.57c-1.27-.16-2.02-.04-2.75,1.03.89.84,1.45,2,2.75,1.73v-2.76ZM262.12,241.27c-.5,2.09,4.28,5,4.84,2.41.37-1.74-3.56-2.75-4.84-2.41ZM354.88,246.81l-3.45-1.39c-1.06,1.01,3.81,4.97,3.45,1.39ZM260.05,250.26c2.72,0,2.76-2.75,0-2.76v2.76ZM359.04,259.95c-.07-.89-2.61-10.05-4.14-8.3.13,2.92,1.97,6.34,4.14,8.3ZM343.81,255.11c-2.09-.69-1.56,2.52-1.34,3.76.25,1.43,1.42,5.02,2.72,5.92.32-3.51-2.18-6.08-1.38-9.69ZM343.12,266.86l-4.16-6.6c-1.67.55-6.37-1.13-6.91.74l2.43,3.78,2.06-2.75c2.74.98,3.14,5.19,6.58,4.82ZM235.11,273.79c2.1-5.78-3.44-9.48-1.36-1.04.25,1.03-.5,1.22,1.36,1.04ZM363.18,267.57l-1.34.99,2.73,3.16-1.39-4.15ZM346.64,274.42c-.45-2.29-1.29-4.05-3.18-5.48-.09,4.2-3.42,6.4-7.26,4.84,0,2.32-.28,5.44,2.76,4.85-.47,2.36-3.13,1.85-2.08,5.53-3.07-1.09-5.35-1.1-5.57,2.74-3.18.44-6.3-2.84-9.14-2.59-4.41.38-2.89,3.56-3.31,3.98-.21.21-2.61-.16-3.65.16-.98.3-1.54,1.67-2.35,1.88-1.4.37-2.16-1.25-3.32-1.3-1.35-.06-6.19,3.11-8.5,3.34-1.72.17-2.44-1.28-2.59-1.27-.55.01-.72,1.9-1.52,2.08-1.08.25-2.54-.19-3.87.12-1.65.39-2.79,2.12-4.44,2.49-1.83.41-3.79-.04-5.79.44-2.74.65-3.52,3.34-7.09,2.46-.6-.15.02-1.97-3.53-1.33-2.45.44-3.31,2.5-4.94,2.75-3.3.5-9.75-.52-13.77.02-1.15.16-9.06,2.8-9.78,3.37-2.05,1.61-.02,4.22-.3,6.57-.25,2.08-2.52,3.24-2.11,5.58l2.81,2.09c-.64,1.04-2.75,2.22-3.15,3.15-.75,1.77.75,4.36-2.37,7.95-1.02,1.18-2.63,1.25-3.46,2.08-1.14,1.13-2.37,4.81-3.47,6.22s-3.17,1.67-3.5,3.46c-.59,3.18,1.54,4.26,2.45,6.56,2.69,6.77,6.08,13.6,6.9,20.79.64.94,1.28.4,1.99-.13,1.5-1.11,1.64-2.45,3.88-3.74,2.55-1.47,11.68-5.24,14.61-6.16,8.29-2.58,18.83-4.67,27.28-6.64,7.49-1.75,15.34-3.01,22.2-5.49,2.07-.75,4.43-.32,6.07-.85,1.01-.32,1.53-1.62,2.36-1.85,1.1-.3,5.41,2.19,7.83.61-2.28-3.18,4.02-3.19,6.57-3.32s4.04,2.18,5.55-1.52h1.02c2.02,5.77,4.75-1.51,7.97-2.09,2.18-.39-.14,4.21,2.77,4.16,2.49-6.39,4.86-3.44,8.85-4.27,1.75-.37,2.56-2.14,3.76-2.5,4.87-1.45,15.02-3.8,20-4.23,1.45-.13,2.99,1.22,4.44.29,2.24-1.48-1.29-2.63-1.86-3.35-1.51-1.91-.53-2.34-3.76-4.19-5.32-3.06-2.18-1.48-5.15-5.24-3.65-4.62-4.33-3.99-7.66-10.34-1.08-2.06-3.81-3.57-3.03-6.99l3.45,2.07-1.72-5.52-1.69,1.09-1.44-.78,1.26-4.63c-2.93-6.91-8.26-12.26-10.96-19.23l-5.47,1.33ZM252.42,275.18c-1.83-1.86-1.66,4.87-1.07,5.58,1.13,1.62,9.01.63,5.5-1.35-2.09-1.18-4.26-.73-4.43-4.23ZM335.5,277.94c-.23-4.25-6.2-1.04-3.02-.09.93.27,2.04.05,3.02.09ZM367.35,283.47l-5.53-4.15c-.32,3.13,2.92,4.37,5.53,4.15ZM374.96,291.78c.64-1.9-3.78-10.26-5.53-8.99l-.38,3.43,5.91,5.56ZM384.66,313.23c.53-.5-6.27-8.51-6.92-9.33-1.25-1.58-1.2-3.94-4.15-4.5-.88.96,3.77,5.32,4.44,6.29,1.77,2.58,2.02,6.75,6.63,7.55ZM397.12,324.31c-1.74-.01-3.78-1.7-4.15,1.02,1.19,1.84,4.37,1.38,4.15-1.02ZM211.58,333.3h-2.07s.69,6.23.69,6.23c2.72.5.88-4.64,1.38-6.23ZM397.84,342.29c-.17-.17.14-1.88-.67-2.44-.74-.51-2.46-.16-3.89-.97-1.79-1.01-2.67-3.82-4.45-4.88.14,2.6-1.83,3.83-4.16,4.16-.55.73,3,4.41.34,5.52-2.88,1.2-.95-2.84-2.37-3.84-4.25-1.87-6.19,1.5-9.07,2.79-1.27.57-3.35-.19-3.43,1.06,5.53-1.2,4.3,2.7,7.39,5.47,2.46.81,5.62-3.69,8.19.76,2.18.25-.57-1.47,1.32-2.8.9-.64,2.12-.61,3.11-1.06,2.17-.98,1.95-2.11,5.6-.97-.22,3.78-4.62,4.72-7.61,5.18,2.46,2.32,5.83-1.86,7,3.03l.94.12c4.75-2.45,5.92-5.84,6.55-10.81.32-2.49-4.12.35-4.78-.31ZM347.97,353.37l4.83-1.03c-1.93-2.12-5.21-2.77-4.83,1.03ZM391.58,355.46l-6.92-2.08.69,6.22c-.76.55-4.87-2.39-6.1,1.18-1.03,2.99,4.36,4.47,6.4,2.93,1.46-1.1.73-2.32,1.27-3.22s6.33-3.33,4.66-5.03ZM377.73,368.6c-1.61-3.22,2.15-6.28-2.41-6.95s-4.95,4.02-5.89,7.64c3.19-.76,4.91-1.65,8.3-.69ZM401.27,369.29l-3.39.08c-1.57,3.35.35,8.41-1.75,11.05-1.63,2.05-4.97,2.14-6.33,3.36-.98.88-.93,2.67-1.67,3.17-.98.67-8.33,1.85-8.93,3.53-2.1,5.89,5.69,5.12,8.72,7.04.87.55,2.19.97,1.26,2.24-1.99,3.84-16.15,5.53-20.44,7.61-.13,1.19,2.39.76,3.14.71,2.57-.16,10.54-2.25,12.14-1.11,2.16,5.43,3.57,7.18-2.19,10.35-8.06,4.45-18.58,3.61-27.27,5.26-1.83.35-7.13,2.67-9.89,3.26-1.87.4-3.86.16-5.69.89l1.04,2.09c1.02,2.67-5-.3-6.13.05-1.06.32-1.14,2.22-2.28,2.59-1.78.58-5.41-.39-7.15,1.16-.88.78-.59,2.57-1.83,3.01-1.79.64-5.06-.33-7.36.25-1.96.5-3.52,3.14-5.19,3.81-2.3.91-6.83,1.26-9.71,2.06-1.64.46-3.67,1.99-4.82,2.16-1.7.25-2.61-1.23-3.88-1.13-1.17.09-2.67,1.76-4.33,1.92-6.18.6-7.68-4.29-10.46-4.71-3.09-.46-6.09,2.59-7.47,2.62-1.11.03-2.46-1.34-4.17-1.42-2.2-.1-3.38,1.34-4.81,1.37-2.43.06-4.61-2.82-7.22-2.77,1.17-6.89-6.52-9.65-4.92-16.54-1.96-.65-1.18,1.55-2.49,1.98-1.09.36-2.56,0-3.73.09-.69-2.25,1.87-2.96,2.44-4.15,1.48-3.11-2.93-3.11-4.76-4.25-.88-.55-4.57-4.9-5.29-4.05.11,1.93-.2,3.95,0,5.87.59,5.62,2.03,11.76,4.94,16.52,2.18,3.56,6.62,9.03,10.28,10.84l-.05,1.32c-1.79,0-1.69,2.07-2.02,3.51l-2.07-.36c3.33,3.03,3.23,9.58,7.24,12.14,1.12.71,2.46.63,3.52,1.33,3.04,2,8.06,13.62,10.41,17.28,4.6,7.18,8.87,13.3,13.17,20.75,2.4,4.17,4.58,11.19,10.14,10.29,1.03-.17,14.13-4.62,15-5.09,3.56-1.94.71-3.85,1.75-5.83.2-.37,6.25-5.01,6.64-5.17,1.64-.65,3.27-.14,4.86-.68,2.21-.75,10.1-5.98,11.39-5.91,2.45,1.65-.52,3.09-.91,4.63-1.16,4.52,4.59-.03,5.89-.35,4.9-1.21,19.36-.32,4.65-4.24-1.19-7.35,5.19-1.07,6.96-1.44,2.58-2.17-1.26-1.29-1.71-2.76l4.13-.68,1.05,2.05c1.53-3.46,2.98-2.18,5.37-2.94,6.84-2.17,13.48-2.9,20.44-4.48s12.6.65,19.24-.86c-1.03-2.21.83-2.08.87-2.42.68-5.06-1.09-10.22-.57-15.25.33-3.19,2.11-6.92,2.14-10.38.02-2.07-1.78-7.19-.09-8.34l2.81-.31c-.98-3.69-.79-7.62-1.44-11.36-.22-1.27-1.43-2.02-1.35-3.45.06-1.15,1.23-2.26,1.37-3.56.44-4.15-.39-8.54.73-12.77.2-.21,3.06,1.49,3.46-.35.35-1.62-1.91-1.22-2.78-1.98-3.37-2.97-1.28-4.41-1.43-7.05-.06-1.02-1.26-1.69-1.21-2.61.06-.97,1.64-2.63,1.92-4.31.42-2.59-.77-7.91-.54-8.9s2.24-1.31,2.97-2.51c2.35-3.88-1.51-9.33-.31-13.82ZM228.39,379.91c.89-1,2.53-1.86,3.25-3.35,0-.91-4.51-1.76-5.52-1.73l.69,6.91c2.15.52.96-1.14,1.58-1.83ZM329.27,378.3l-2.76-.7v2.07s2.76,0,2.76,0v-1.37ZM287.04,389.37c-1.12-1.19-3.4,2.21-4.41,2.03s-1.92-2.72-3.54-2.72c-1.05,0-1.87,1-2.88,1.17-1.4.24-2.96-1.35-4.39,1.25,1.06,2.64,13.24,1.57,14.54.71.79-.3.9-2.2.68-2.43ZM271.27,393.36c-.37-.22-.37-1.5-1.27-1.81-2.57-.91-5.59.34-7.67,1.81-.59.41-1.3-.12-.9,1.54,3.4-.54,7.48.56,10.64.45,1.2-.04,2.23-.44,1.83-1.83-.83-.06-1.91.27-2.62-.16ZM353.5,410.12l-1.05-1.37-1.72,1.04,2.77.34ZM318.19,417.74h-6.91s-.01,2.07-.01,2.07c1.6.08,3.49-.74,3.57,1.26l.92.12,2.43-3.45ZM327.89,425.36h-3.46c1.77,4.03-1.65,2.16-2.08,5.53l7.61-2.08-3.46-1.38,1.38-2.06ZM318.89,429.51l-5.53-.69,3.1,2.81,2.44-2.12ZM311.27,430.2c-1.95-.19-3.79.26-5.54,1.06-1.04.48-1.71-.1-1.38,1.7l6.92-.69v-2.07ZM260.74,433.66c-1.29-.07-3.05-.2-3.46,1.37,1.29.07,3.05.2,3.46-1.37ZM366.65,486.95l-5.53,1.37c1.54-.07,4.83.44,5.53-1.37ZM348.66,494.55c2.94.05,1.93-4.3,2.76-6.22-2.79,1.01-1.65,4.1-2.76,6.22ZM359.73,489.03c-2.48-.27-5.05.35-6.23,2.75l6.23-2.75ZM380.5,492.48c-.7-.76-3.89,2.62-4.15,3.45,2.45.32,4.46-.72,4.15-3.45ZM327.19,495.25c-1.66-.26-2.94.33-2.76,2.07l2.76-.7v-1.37ZM375.65,495.25c-2.66.72-7.17.52-7.61,4.15,2.9.2,7.1-.66,7.61-4.15ZM338.27,498.03c-4.08-3.09-4.79.69-2.09,1.06,1.15.16,1.69.31,2.09-1.06ZM273.75,500.26c-.6-.34-1.3-.12-1.94-.16l.1,3.01.55.84,2.81.3c.46-.43-1.14-3.77-1.52-3.98ZM394.35,503.55c.03-2.3-2.2-3.06-4.15-2.76v2.76s4.15,0,4.15,0ZM391.58,509.09l-2.43.68-.34,2.78,4.84-1.04-1.98-.45-.09-1.97ZM386.73,510.48h-1.38v2.07h1.38v-2.07ZM419.27,511.17c-3.19-.33.02,5.16-.68,6.91l.68-6.91ZM423.42,531.93c-.13-3.95-1.38-8.8-3.11-12.44l.52,6.38,2.58,6.06ZM410.96,536.77c.03-2.65.2-5.39-.7-7.94-.45-1.28-1.45-1.85-1.69-2.46-.66-1.69.23-4.01-1.75-4.82.11,4.83,2.05,9.02,1.49,14.08l.54.84,2.11.3ZM320.97,531.23c1.63.86,5.6-3.34,4.84-4.15-.35.69-6.03,3.12-4.84,4.15ZM318.89,532.63l-4.84-1.39c-1.79,8.2-7.47,1.81-11.47,1.4-3.68.77.66,4.25,2.97,4.71s5.51-1.27,8.18-.53l5.15-4.2ZM390.2,531.24h-2.77s0,1.37,0,1.37c1.29.18,2.4,0,2.77-1.37ZM292.58,534c.91-.84-1.81-2.96-2.76-2.07s1.81,2.96,2.76,2.07ZM397.81,543.01c-2.96-.76-3.25,1.49-4.84,3.45l4.15.7.69-4.15ZM384.65,547.15c.2-.99-.25-1.58-1.15-2.01l-3,.64c.53,1.76,2.63,1.4,4.15,1.37ZM424.12,545.77c-.41.42.25,6.43,2.41,6.22,2.19-.46.92-7.44-2.41-6.22ZM371.5,547.84l-1.05-1.37-1.71,1.03,1.02,1.02,1.73-.69ZM417.19,548.54c-3.15-.15-7.81.65-6.79,4.73,4.76,1.83,1.56,3.19,1.25,5.36-.07.49.56,6.06.72,6.85.4,1.96,2.39,2.46,2.65,3.61.23,1.05-.74,2.16-.49,3.2.33,1.37,2.28,2.86,2.6,6.44.51,5.66.52,3.06,2.48,7.9,1.36,3.37,2.38,7.52,2.73,11.11,4.43.65,2.49,1.44,3.82,3.62.55.91,3.12,1.53,3.39,3,.5,2.72-2.41,5.25-5.67,3.6-5.9-2.98-10.51-13.15-12.56-19.28-.66-1.96-.37-4.37-1.23-6.39-.53-1.24-1.89-2.03-2.28-3.26-.55-1.74.1-4.56-.61-5.62-1.02-1.54-4.26.33-6.21.04-1.47-.22-3.08-2.3-4.19-2.08-3.98.8,4.14,6.12,4.5,6.56.55.69,1.04.7,0,1.4-2.51,1.68-7.55,1.4-9.89,2.57-1.5.75-1.78,2.89-3.3,3.62-3.51,1.7-10.03,2.12-13.51,3.8-1.53.74-2.63,2.4-3.56,2.67-1.67.49-3.71-.07-5.77.46-2.46.63-3.78,3.09-5.81,3.88-5.6,2.19-15.41-.92-10.09,10.32l-9-4.14c.48,1.02.73,2.17,1.38,3.12,1.5,2.22,5.44,7.93,7.29,9.32.92.69,1.84,1.54,3.1,1.4l1.22-4.51c-1.23-2.26-4.01-1.98-6.06-2.76,5.78-4.47,7.05,1.11,10.08,4.45.66.72,1.96.8,2.99,1.86,1.79,1.83,1.75,4.84,2.49,5.82.65.85,3.69.85,4.99,2.27,1.45,1.59,4.52,6.73,6.43,9.15,1.15,1.46,1.42,4.16,3.94,4.37.31.03,3.81-2.38,3.68-.24-.07,1.1-2.77.83-3.29,1.18-3.57,2.42,6.64,10.95,6,13.22-2.42,2.22-2.89,6.7-4.75,9.16-1.36,1.79-3.3,1.03-3.48,2.74.96,2.54,11.1,4.48,13.68,5.69,1.01.47.73,1.64,1.21,1.62,3.3-.16,7.03-4.89,9.38-6.56,1.1-.78,10.48-6.5,11.22-6.77,1.64-.61,3.78-.27,4.52-.68.43-.24,1.23-3.03,2.64-3.93,1.51-.97,4.03-.95,5.81-1.8,3.41-1.63,7.73-3.83,11.01-5.6,4.32-2.35,8.27-5.29,12.56-7.67.74-6.65-2.37-3.71-5.43-6.79,4.98-5.19,1.28-8.33-.87-13.82-7.71-19.71-17.9-33.64-22.27-55.25-.41-2.04-2.89-4.68-3.19-6.56s1.08-4.27.58-6.4ZM429.65,562.38c.58-.72-.2-9.66-3.45-8.99-.21,1.33.97,2.05,1.23,3.26.38,1.73-.44,6.09,2.22,5.73ZM320.96,554.77c-1.81-.73-1.09,1.25-1.83,1.4-.96.2-2.01-.2-2.98.01l-.57,3.7,5.74,3.86c1.86-1.25.08-3.39-.29-5.23-.24-1.19,0-2.53-.06-3.75ZM374.96,556.15h-1.38v2.07h1.38v-2.07ZM289.81,558.23c-2.72,0-2.76,2.75,0,2.76v-2.76ZM294.65,563.07c.3-1.94-.46-4.18-2.76-4.15l.68,3.69,2.08.46ZM363.19,559.61h-2.77v2.07h2.77v-2.07ZM372.88,559.62c-.7-.7-2.78,1.35-2.07,2.07s2.78-1.35,2.07-2.07ZM726.65,559.62c-3.76.85-6.84,1.55-10.72,2.09-1.29.18-2.05-.69-1.73,1.36,2.68-1.14,2.52.44,3.94,2.11,3.19.77,9.78-4.47,8.51-5.57ZM367.35,563.75c-.58-2.25-5.28-1.71-4.84.34.48,2.29,3.77-.08,4.84-.34ZM701.03,563.76c-2.13-.54-2.68,1.71-4.5,2.07-2.03.4-4.7-.24-6.9.02-3.82.46-7.66,1.39-11.44,2.07l.7,2.76c4.73-2.93,8.59.02,12.99.56s7.53-.09,13,.78c3.39.54,9.33-.36,6.4-4.65-1.22-1.78-10.99,2.29-10.25-3.61ZM357.65,567.23c-2.62.98-5.25,1-7.96,1.4-1.21.18-1.16-.36-1.04,1.37,2.66-.16,8.29.95,8.99-2.76ZM405.42,567.23c-3.68-.32-3.66,3.09,0,2.76v-2.76ZM677.5,570.68c.77-2.18-5.31-3.01-5.53-2.77l-1.06,3.46c-1.81.48-5.81-5.44-7.25.69l7.31.67c-.48,2.31-.56,3.82,2.38,3.48-1.29-3.13.57-5.95,4.15-5.54ZM623.03,575.05c.33-.45,1.82-.78,1.84-1.25-2.75-3.82-3.64-.21-5.27.17-2.21.51-7.74-.3-10.29.19-1.81.35-12.12,3.79-14.69,4.69s-10.17,3.75-7.82,7.06l-3.47-.43-10.37,5.98.68,1.74c1.71-.32,1.78-.64,2.48,1.04,4.24-1.41,9.51-3.65,13.71-.63.99.71,1.42,2.37,2.26,2.63,1,.31,4.75-1.83,6.82-2.02,2.21-.21,9.63,1.65,10.05-.36.03-.74-2.35-2.67-.34-3.09,2.81-.59,2.16,3.05,3.41,3.27,2.24-.91,4.61-.29,6.9-.58,6.37-.82,13.43-3.36,20.15-4.08,2.78-.3,6.45.49,8.98-.02,1.5-.3,2.34-1.92,2.77-1.91.38,0,1.17,1.27,2.71,1.24,4.23-.1,7.89-3.98,10.09-4.56,1.26-.33,2.85.58,4.47.4s2.87-1.6,4.38-1.92c1.1-.23,2.91.67,4.34-.16-.76-2.42-4.14-.76-5.4-1.52-.37-.23-.4-1.65-1.21-1.83-1.91-.43-2.82,1.85-5.45-2.22-1.42-2.2.75-3.66-4.18-3.42-5.86.29-9.25,5.38-13.49,6.62-2.03.59-4-.04-5.77.46-.98.27-2.63,2.22-4.02,2.9-1.61.79-12.59,5.77-13.08,5.26.17-2.56-1.4-4.21.69-6.23-3.24-.88-2.57,1.23-3.75,2.1-2.5,1.85-8.99,3.14-12.18,3.42.16-1.03,1.3-1.29,2.06-1.74,2.13-1.25,8.38-3.57,9.76-4.82.26-.23.73-4.29,2.25-6.37ZM741.88,572.07c-1.46.39-5.41-1.19-4.84,1.37,1.98.62,4.78,1.68,4.84-1.37ZM396.42,575.54c-2.6-1.08-5.09-.47-6.91,1.72-.07,1.6,5-.17,5.87-.37,1.06-.24,1.22.5,1.04-1.35ZM631.11,578.3c.27-1.64-.08-4.04-2.41-3.45-2.63.66,1.93,3.34,2.41,3.45ZM435.19,576.23h-1.38s0,3.45,0,3.45h.68s.7-3.45.7-3.45ZM328.58,582.44l-1.04-2.75-2.42,3.44,3.46-.69ZM343.81,581.08l-5.57-1.11-2.04,5.25c.75.67,5.6-1.98,6.72-2.61.61-.34,1.9-.5.89-1.53ZM382.58,581.07c-3.42.49-6.45,1.32-8.98,3.8,2.65,3.18,3.32-1.31,4.59-1.66s4.13,1.79,4.39-2.15ZM302.27,583.83c.23-1.26-.76-2.29-2.07-2.07v2.07s2.07,0,2.07,0ZM310.85,586.34c-.51-.53-.67-1.33-1.29-1.78l-4.5,2.39c1.37,2.23,2.29-.25,3.44,0,2.74.61,1.77,3.93,4.16,3.8.6-3.08-.39-2.94-1.81-4.41ZM762.41,594.46c-5.48-4.5-10.96-2.71-17.79-4.01-1.71-.33-3.98-.82-5.63-1.29-1.5-.43-8.07-3.7-8.53-3.72-.84-.05-1.93,1.43-2.93,1.69-3.73.98-13.15-1.66-17.83-1.25-2.7.23-13.44,4.01-12.82,7.64-5.23-2.11-2.55,1.99-5.32,2.69-1.04.26-4.81-.49-6.67-.33-2.71.24-8.67.78-11.03,1.27-2.51.52-6.4,3.89-9.31,4.54-3.39.75-8.78-.18-11.66,2.22-.64.53-.78,1.93-1.48,2.1-4.02.98-4.54-1.36-4.82-1.42-2.11-.43-6.96,2.31-8.89,3.49l-.4-2.01c-4.88-1.35-3.61,2.58-4.96,3.93-1.06,1.06-6.32,1.04-8.42,2.31-1.85,1.12-1.52,2.73-2.85,4.06-1.27-2.08-4.93-3.92-7.13-2.61-1.4.83-.68,3.5-5.68,1.93,1.24,2.76.11,4.16-1.74,6.22-2.3,1.15.48-5.87-2.41-4.84l-1.4,6.23c-3.59-1.03-4.37-.73-7.25,1.39l-2.43-2.77-.31,2.81c-2.49.81-5.86,2.12-7.99-.05-.27,3.18-3.74,1.72-6.27,2.4-5.33,1.43-13.99,7.12-18.82,8.23-2.73.63-5.59-.07-8.81,1.52-5.22,2.56,2.34,5.64,1.34,9.31l-3.73-.65c-1.47.45-.81,3.14-1.76,3.81s-4.21.1-5.83,1.1c-1.23.75-.87,1.9-1.63,2.7-2.26,2.36-7.06.02-8.51,4.11l7.1,1.29c2.42-.85,3.39-2.88,5.67-4.09,4.63-2.45,11.22-2.16,16.3-4.47,9.32-4.23,15.58-6.61,25.6-9.71,5.81-1.8,4.66-2.33,8.36-4.1,1.75-.84,5.97-1.4,8.26-2.12,2.01-.64,3.6-2.35,5.91-2.46,4.69-.21,4.7,3.54,6.33,4.09,1.92.64,3.72-.83,4.75,2.22,1.92.59,5.21-5.57,7.57-4.87,3.42,1.02-1.93,8.86-3.09,10.37,1.12.81,9.52-.62,11.43-.55,3.37.12,8.55,1.74,12.42,1.97,8.86.54,16.53-.05,25.62.69,10.03.82,21.37-2.18,31.9-1.44,2.68.19,8.03,1.97,9.54,1.94,3.27-.08,12.96-6.18,16.15-8.03l4.65,1.94c3.21-5.53,4.38-.86,5.61-.82.75.03,4.62-3.2,6.29-3.3s2.83,1.37,4,1.26c1.07-.1,2.11-1.62,3.6-1.92,14.6-2.91,29.5-2.31,44.11-4.34,7.65-1.06,15.14-2.46,23.02-3.29,2.44-.26,5.19.33,7.56-.05,1.75-.28,3.02-1.7,4.35-1.9,1.46-.22,3.64,1.61,3.65-1.51-4.2.23-5.21-2.3-7.65-3.77-7.29-4.39-15.12-10.7-22.82-13.87-1.29-.53-9.45-3.27-9.97-3.18-.58.09-.56,1.44-1.07,1.78-2.12,1.38-7.1-.35-9.28-.14-.88.09-1.72,1.11-2.84,1.13-1.21.02-2.38-1.02-3.57-1.12s-2.25.6-3.9.34c-2.65-.41-1.44-1.91-2.34-2.67s-4.16-1.66-5.58-2.59c-2.75-1.8-4.04-3.82-5.99-5.43ZM368.58,586.8l-.87-.22-1.75,1.39,5.53,1.39c.47-2.33-1.39-.87-2.59-1.6-.24-.15-.2-.89-.33-.97ZM341.73,588.69c-1.29-.19-2.4,0-2.77,1.37,1.29.19,2.4,0,2.77-1.37ZM442.81,588.68c-3.27-.64-3.64,3.76,0,2.06v-2.06ZM791.03,597.68c-2.23.33-3.99-2.2-5.34-2.62-2.43-.76-6.51-.36-9.19-1.53-1.03,1.17,3.46,4.62,3.89,6.16l7.18-1.32v4.14s3.46-4.83,3.46-4.83ZM570.88,599.76c-4.1,1.6-4.87-3.05-7.23-2.81s-2.62,2.91-3.31,3.33c-1.58.94-6.85-.44-6.07,3.62h4.15c-.57,2.92-1.61,4.52-.69,7.62,4.31-.13,3.47-5.59,6.99-8.58,2.32-1.97,4.45-1.21,6.16-3.18ZM589.57,598.37c-2.6-.54-.43,2.64-2.51,3.37-.54.19-6.29-.02-7.39-.15-.88-.1-1.6-1.27-3.57-1.21-.69.02-8.79,2.82-9.35,3.2-.31.21-3.97,5.15-4.47,5.91s-3.39,5.2-3.53,5.51c-.49,1.15.99,3-1.38,4.13-2.45.55-1.52-4.64-1.72-4.85l-2.02.05c.07,2.11-1.43,3.4-3.51,3.41-.43-2.55,1.11-7.47-1.15-8.88-5.35-3.32-8.93,5.32-12.33,7.52-1.54.99-3.69.73-4.91,2.72l-3.98-3.34c-3.03.65-4.11,5.04-5.8,6.01-2.04,1.18-7.22.78-9.23,2.54-1.01.89-.5,2.61-1.05,3.8-.6,1.29-5.43,5.39-7.26,4.17v3.47c-6.17-1.78-5.25,3.32-7.91,4.89-1.4.83-3.14.42-3.9.96-.91.65.07,3.24-2.73,2.45-.86,1.61,3.19,1.51.68,3.1-2.97,1.88-8.13-.65-6.92,7.27-2.86-.68-6.38-2.04-6.24,2.07-4.48-2.04-4.95,1.98-6.92,3.09-1.29.73-4.4.63-5.2,1.74-1.03,1.43,2.69,3.65,2.94,5.31.15.99-.63,2.52-.53,4.02.67,9.38,3.6,3.22,6.08,2.56,1.07-.29,2.25.52,2.99.22.89-.36,4.71-4.07,5.99-4.36,2.28-.53,2.89,2.19,4.73-2.87.6-1.65-.42-4.44,2.6-3.96,4.98.8,2.52,5.45,6.72,5.33.14-1.62-1.09-3.47-.72-5.04.06-.24,3.26-3.51,3.48-3.62.99-.49,4.68-.6,5.76-.35.85.2.69,2.67,2.9,2.08,2.59-.69-1.6-4.5-1.1-6.15l-2.7-.08.69-2.76c-3-.91-4.59,4.25-5.9,4.82-2.51,1.1-.93-2.26-3.02-2.13-1.09-1.6,3.09-2.34,4.04-3.08,1.88-1.47,2.12-5.29,5.1-4.48.95.26.74,2.61,2.55,2.09-.28-6.22.43-4.12,3.89-4.23,1.1-.03,2.08-.49,3.19-.43,1.51.08,4.54,1.26,5.65,1.04,1.76-.35,8.44-7.01,10.64-7.96,1.87-.81,4.16-.49,5.86-1.06,1.79-.6,3.16-2.55,5.19-3.12,2.36-.66,6.1-.3,8.53-1.16,1.38-.49,2.19-2.02,3.22-2.31,1.47-.42,3.17.15,4.58-.26s1.59-2.31,2.58-2.95c1.84-1.19,6.11-1.39,8.09-2.29,1.75-.79,1.91-2.51,2.73-2.99,1.59-.94,7.23-.38,6.38-3.64-.48-1.83-3.68-2.21-3.97-2.67-1.05-1.67,1.06-4.21-4.96-2.96-.71-.52-.91-1.25-.65-2.06.84-2.61,18.16-2.89,18.71-7.95l2.01.65v-4.15ZM822.88,599.06c-1.93,1.89,6.7,6.55,6.9,3.81.23-3.14-4.23-4.62-6.9-3.81ZM837.39,604.63l-6.89-2.11c-.16,1.93-.18,3.91,1.88,4.74l5.04-.6-.03-2.03ZM327.88,603.21c-1.13-.06-1.55-.34-1.37,1.02.09.67,3.3,7.59,3.87,8.6,3.67,6.53,9.42,12.9,13.04,19.49.61,1.11.46,2.71,1.03,3.65.88,1.47,5.95,1.49,6.84,4.42.34,1.13-.16,2.71.28,3.52.28.51,2.83,1.1,3.17,1.69.39.69-.1,1.91.26,2.47.21.32,2.11.53,3.26,1.96,2.43,3.04.56,5.85,1.48,9.25,1.78.19,1.1,0,1.4-1.01.62-2.08.34-8.1,3.84-5.28,1.18.95,1.92,6.28,3.39,5.59,4.28-6.38-5.08-11-8.41-14.76-.41-.47-.39-1.56-.91-2.17-4.16-4.82-8.74-9.19-11.79-14.9l-1.72,1.37c-1.22-.04-10.92-16.42-12.79-18.84-1.34-1.74-4.91-2.79-4.87-6.06ZM550.8,605.98c-1.29-.18-2.4,0-2.77,1.37h2.77s0-1.37,0-1.37ZM629.73,607.37l-7.61.33c.73,3.16,6.14,1.56,7.61-.33ZM883.06,626.14c-5.37.24-10.38-3.74-15.26-5.9-7.5-3.31-15.04-6.13-22.26-9.58-2.42-1.15-3.94-4.21-7.43-3.3-.24,1.41.14,1.84,1.02,2.78,1.96,2.1,11.91,11.15,14.02,11.59,2.96.62,6.66,0,9.7,1.38,4.78,2.17,9.94,10.38,16.41,9.14,1.07-.21,1.88-1.27,2.84-1.36,2.03-.18,4.01,2.04,5.85-1.04l-4.75-1.86-.13-1.86ZM622.11,611.52l-2.76.34c.75,1.06,1.49,1.21,2.76,1.04v-1.38ZM583.35,616.36l7.6-2.42c.04-2.24-5.54.39-6.21.73-.98.49-1.74-.16-1.39,1.69ZM356.97,619.82c-.29-2.3,1-5.3-2.77-4.84,1.3,2.39-.68,3.23-.69,5.53,1.19.26,2.45-.68,3.46-.69.27,2.1.42,4.88,2.04,6.61.9.96,2.27.89,3.13,1.72.98.95,2.36,5.78,4.17,5.51,3.71-.55-2.89-5.57-3.14-5.85-2.04-2.32-3.99-4.68-4.79-7.7-.35-.33-.94-.29-1.41-.29ZM891.42,630.2l1.37-1.05-1.04-1.72-.34,2.76ZM818.73,637.81c2.39-.15,5.67-.12,7.6-1.72l-2.13-.08-5.47,1.8ZM840.88,635.05c-2.17-.11-13.67.4-13.83,2.42l2.41.36,11.42-2.77ZM818.03,637.82c-4.5.65-10.46,2.69-14.92,2.78-2.58.05-4.89-1.11-7.53-.68-1.83.3-2.88,1.92-4.16,1.97-6.54.28-8.87-.13-15.58,1.14-3.73.71-8.35.25-10.85,3.04l-3.36-2.03-.36,2.43h2.77s-4.14,4.14-4.14,4.14c1.22,1.97,4.4.67,5.78-.44,2.31-1.88,1.63-6.9,5.33-3.76,2.19,1.86,2.07,5.69,5.48,1.08.26,6.86,3.12,1.82,4.58,1.54,2.45-.47,6.8,1.87,8.94,1.97s3.33-1.29,4.89-1.44c1.66-.16,3.11.89,4.72.69.59-.07,5.17-2.1,5.25-2.43-.02-1.78-3.34-2.38-1.37-4.13,4.05-3.6,12.49-.37,14.53-5.88ZM620.73,645.42c.1-1.32.19-3.04-1.37-3.46v3.46s1.37,0,1.37,0ZM512.04,650.96c1.94-.09,4.91-1.69,2.41-3.45l-2.41,3.45ZM609.84,652.84c-1.16-3.43-3.46-1.09-5.29-1.37-1.74-.26-3.53-4.1-5.35-.22-2.78,5.95,4.59,6.05,8.7,5.24,1.59-.31,2.22-1.9,2.87-2.01.8-.13,1.55,1.18,2.63,1.26.78.06,5.19-.91,5.22-1.66l-8.79-1.24ZM584.73,657.19c4.32.6,14.93,3.7,12.34-4.39-1.2-3.74-6.14,2.57-7.31,2.9-2.07.58-4.96-1.99-5.04,1.48ZM678.88,663.42c.54-.34,10.9,0,12.81,0,2.87,0,.83,5.45.35,6.92l5.75-.82c1.14-.52,2.01-3.78,3.03-5.23,2.12-3.01,4.63-3.4,7.39-5.11.97-.6,1.14-1.9,2.32-2.52,5.09-2.64,6.32,1.29,8.75,1.21,2.11-.07,4.88-1.69,7.07-2.01,1.33-.19,13.96-.11,12.06-2.81-3.03-1.07-6.21-.63-9.37-.73-8.74-.29-17.82,0-26.32.69-15.23,1.25-30.72,0-45.76.29-10.45.2-20.89,1.78-31.39,1.14,1.85,3.79,8.47,1.11,9.01,4.83,1.66.72,1.18-.95,1.52-1.18,1.74-1.15,4.11.93,5.77,1.15,7.81,1.04,17.9,4.03,24.92,4.2,4.28.1,7.35-2.48,10.37,2.06,1.55.34,1.56-1.97,1.72-2.07ZM744.65,652.35l-3.45.34c.83,1.17,2.14,1.15,3.45,1.04v-1.38ZM515.5,653.04c-1.92-.04-4.03-.42-5.23,1.39l.38,6.22c2.9.96,6.16-6.31,4.85-7.61ZM863.51,655.33c-.2-.15-4.23-2.11-4.47-2.17-3.09-.81-7.87,4.74-7.09,5.41,1.32,1.14,2.32-1.32,2.54-1.37.98-.19,3.08-.2,4.08-.05,2.96.45,3.5,3.82,6.52.38-.77-.45-1.05-1.82-1.58-2.21ZM372.89,654.42c-.23,1.96-2,5.94,1.57,5.43,4.65-.67,1.98-5.85-1.57-5.43ZM530.02,657.23l-5.51-2.11c0,2.26.76,4.83-2.28,4.83l-.48,2.08c.4.41,10.1-2.08,8.28-4.81ZM455.27,655.81c-1.82.25-5.81,1.88-7.19,2.84-2.25,1.58-4.5,5.77-8.77,7.15-7.4,2.39-5.86,2.33-12.04,5.96-1.39.82-3.38.71-4.53,1.7-1.45,1.24-3.26,6.62-2.78,8.64-3.46-1.92-4.43.73-6.71,1.25-1.94.44-4.17-.25-5.95.28-.91.27-3.13,2.74-4.72,3.59-1.69.9-9.26,3.59-9.54,4.31-1.26,3.23,3.56,3.36,5.45,4.77,1.6,1.2,1.7,4.03,3.11,3.8,3.4-1.53,5.93-4.49,7.64-7.61,1.22,1.18,1.33,3.15,3.45,2.78,1.43-3.98,3.54-2.17,6.11-2.78.72-.17.62-1.65,1.61-1.98,1.63-.54,4.2.58,4.97-1.99,1.06-3.54-2.57-5.56-1.94-6.42,4.62-.73,7.18.47,11.38-2.82,2.67,4.44,6.02,5.29,10.76,3.51-1.96,6.96-1.96,4.65-7.21,5.58-2.82.5-9.81,1.69-8.35,5.49,7.71-1.93,14.75-4.17,21.72-8.04,4.3-2.39,10.62-6.53,14.76-9.46.79-.56,1.54-.51,1.23-1.88-2.6.14-10.31-.95-4.84-3.81-2.66-.94-2.33-5.9-5.95-3.16-1.18.89.18,5.95-3.35,4.87-1.01-.31-1.07-2.61-2.08-3.49-1.43-1.26-4.08-.55-4.56-3.08-.8-4.23,1.71-3.12,3.53-4.78l4.79-5.24ZM575.73,659.26c-2.61-1.14-3.42,2.07-3.91,2.13-2.06.27-1.72-.24-4.77.61-1.44.4-3.59-.93-3.08,1.4,4.34.86,7.85,4.29,12.46,3.47l-.7-7.62ZM856.8,666.87c-.63-3.23-5.22-1.21-6.57-5.52l-2.44,4.14c-2.01.8-1.97-1.23-2.52-1.37-3.83-.91-5.25,1.31-8.05,2.89-.94.53-2.31.36-3.22.94-1.22.77-4.32,5.09-.71,4.15,5.79-1.51,3.9.28,7.23.37,2.38.06,3.15-1.96,5.21-2.13-.94,4.98-8.13,2.66-8.99,6.91,3.52.46,5.57-1.42,8.14-2.58.76-.34,1.96-.1,2.91-.55,2.32-1.09,4.51-7.79,9.02-7.25ZM803.49,665.5c-4.01.52-9.29,1.74-12.98,3.3-.66.28-1.21-.08-.77,1.09,1.87,4.91,3.09,1.47,3.83,1.14,2.85-1.29,5.64-2.44,8.53-3.84,1-.49,1.73.14,1.38-1.69ZM606.19,666.89c-3.43.82-8.54,0-11.08,2.75,3.41-1.03,8.49-.1,11.08-2.75ZM904.57,671.72c-.65-4.32-5.29-3.32-8.52-4.05-1.41.14-3.56,6.51-3.24,6.82,4.49.62,7.72-2.51,11.76-2.77ZM584.73,671.03c3.31-.72,6.79,2.3,8.98-1.03.03-.96-9.63-3.42-8.98,1.03ZM664.34,675.18c1.2-1.16-3.08-4.5-3.97-4.74-1.9-.52-3.01,1.4-5.34,1.34s-6.04-1.95-8.67-2.5c-3.02-.63-12.2-2.76-11.8,1.75l-1.73.02-2.67-1.99c-1.36.29-1.47,2.47-2.31,2.68-2.48.6-6.74-.93-8.03-.6-.91.24-3.94,2.75-5.87,3.16s-3.78.16-5.69.2c1.83,3.23,7.91,2.34,11.37,2.82,1.87.26,3.32,1.15,5.56,1.36,7.78.71,18.34-1.43,26.38-1.49l1.05,1.38,1.32.07c.96-3.8,7.11-3.4,10.39-3.46ZM384.65,668.95c-3.4.92-4.14,2.57-8.3,1.39-.73,3.98,1.83,6.51,4.5,8.99,2.15-3.44,3.59-4.83,7.96-4.14.28-3.16-1.11-4.79-4.15-3.46v-2.77ZM543.19,674.49c2.48.32,8.04.09,6.88-3.75-.67-2.22-8.69-.04-6.88,3.75ZM788.95,670.35l-3.46.7c.97,1.33,1.65,2.37,1.39,4.14,2.12-.83,2.29-2.81,2.07-4.84ZM759.88,672.42h-1.03s-1.74,2.07-1.74,2.07c1.28.17,2.03.04,2.76-1.04v-1.02ZM782.04,673.81l-2.07,1.03,4.14,2.42-2.34-2.08.27-1.37ZM541.12,678.64c-.23-.21,2.09-4.44-1.38-4.14v4.14c-3.39.56-13.08,1.09-14.18,4.85-.27.93-.35,1.79.69,2.07,1.05.17,1.95,0,2.3-1.15s-.68-3.3,1.16-3.01c2.18.3,2.52,2.29,2.44,4.14,4.03.92,4.91-3.46,8.63-4.81.25,3.65,4.83,3.19,7.58,2.73,2.09-.35,5.27-2.82,7.81-3.26,3.2-.56,4.8-.39,8.28-1.29,1.64-.42,3.86,1.07,3.66-3.02-6-2.44-12.99-.56-19.29.11l-.09,1.95c-1.75.24-1.84.02-2.43-1.41l-5.18,2.1ZM777.18,674.5c-4.11-.24-5.78,2.67-8.98,4.5,4.06,3.75,4.69-2.53,8.52-2.41l.46-2.09ZM835.34,676.57c-.44-4.01-6.08-1.9-6.22,1.38l6.22-1.38ZM827.01,675.19c-1.59-1.31-3.93,3.01-3.44,3.45h4.15s-.71-3.45-.71-3.45ZM689.96,677.96c-3.3,1.23-8.19-1.78-10.7-1.41-1.05.15-5.61,3.29-7.26,3.87-1.24.43-10.31,1.35-9.72,4.1.38,1.77,3.98,1.7,5.35,2.26.99.41,1.98,2.01,2.59,2.06.3.02,5.15-1.47,5.71-1.72,1.62-.71,2.52-2.7,4.14-3.47,2.92-1.39,8.68-1.37,9.88-5.68ZM764.73,679.33c.4.4,2.06-.58,2.06-1.03,0-1.92-3.11-.01-2.06,1.03ZM818.72,677.27c-1.33.03-4.38-.26-4.84,1.37,1.22-.17,4.38.06,4.84-1.37ZM795.18,677.96c-4.19-.25-3.33,4.14,0,1.02v-1.02ZM761.26,681.41c1.57-5.04-3.13-1.25-5.68-.49-.94.28-13.35,2.47-10.92,4.65,1.85.66,3.27-1.26,4.52-1.37,1.85-.16,4.36,1.46,6.82-.05l1.4,1.46,7.33-2.81c.56-2.43-2.16-.49-3.47-1.38ZM782.03,678.65h-1.03s-1.74,2.07-1.74,2.07c1.28.17,2.03.04,2.76-1.04v-1.02ZM804.88,679.34l-3.45.34c.83,1.17,2.14,1.15,3.45,1.04v-1.38ZM913.57,679.34c-.3,1.61.74,1.55,1.76,2.04,1.64.78,10.9,3.36,11.39,1.06.65-3.05-11.35-3.41-13.15-3.1ZM599.27,685.57c-3.67.78-7.22-2.4-10.75-2.14-1.57.12-2.3,1.27-3.48,1.43-.91.12-1.83-.61-3.08-.35-1.17.25-5.32,2.3-5.89,2.26-.82-.07-5.42-5.3-5.89.88-3.67-1.1-7.25.93-10.88,1.92-3.44.93-5.65,2.25-7.59,2.8-1.47.42-3.12-.15-4.57.27-.94.28-1.48,1.59-2.36,1.85-1.45.42-2.88-.86-4.51-.48-1.02.24-2.22,1.72-3.34,2.26-1.45.71-4.31-.16-4.11,2.46,2.11.35,3.27-.52,4.5-2.06l3.11,2.07c-.27-4.86,6.63-2.57,9.28-2.76.73-.05.66-2.41,2.14-2.09l1.73,1.73-2.07,3.12h2.76c.13-1-.34-2.46.15-3.32.21-.37,6.67-5.35,6.08-1.53-1.54.23-3.44,1.03-4.02,2.56-.32.85-.5,2.91.9,2.28,1.29-.58,4.81-3.99,5.9-4.48,1.31-.59,2.8-.15,4.13-.71,1.16-.49,2.84-3.54,3.92-3.73l4.74,2.02c.86-.14-.58-2.99,2.08-2.08,1.62.72.46,5.35,2.76,4.84.96-.21,1.46-2.56,2.23-2.78,2.45-.68,5.4.98,7.42.71,1.31-.17,2.06-1.42,3.13-1.77,3.35-1.09,6.19.61,5.58-5.15ZM930.18,684.88h-2.76s0,2.07,0,2.07c1.28.16,2.03.04,2.76-1.05v-1.02ZM736.34,702.86c-3.2-3.88-8.87-4.28-8.63-10.4l-.81-.62c-3.99,1.86-5.89-.92-8.39-1.32-3.56-.57-8.47,1.36-12.63-1.85-1.32-1.02-1.37-2.86-3.14-3.14-2.56-.42-4.36,2.05-6.28,2.13-1.52.06-2.26-1.22-3.43-1.37-2.04-.27-5.61-.58-7.68-.68-1.15-.05-1.62.04-2.32,1.01.35,3.58,6.99,4.26,7.97,5.86,1.46,2.38-1.07,4.35-1.06,5.92.02,3.42,7.84-.11,10.24-.19,10.29-.34,18.53,1.52,28.72,3.44,2.23.42,4.5,2.08,7.44,1.21ZM878.96,689.72c2.22-.27,5.21.89,6.91-1.03,0-1.31-7.4-2.2-6.91,1.03ZM740.49,689.72c-1.57-1.56-6.58,5.53-3.79,6.22,3.2.14,3.82-3.76,3.79-6.22ZM847.11,692.48c.23-1.26-.76-2.29-2.07-2.07v2.07s2.07,0,2.07,0ZM743.95,696.64c.59-.57.95-5.21-.67-5.53.46,1.55-2.31,6,.67,5.53ZM624.88,695.25c-1.38-3.72-5.01-4.81-8.3-2.41,2.66,1.09,5.31,2.76,8.3,2.41ZM642.19,692.49l-14.53-.69c4.1,3.16,8.1,3.81,12.91,2.14,1.05-.37,1.99.62,1.62-1.45ZM424.81,696.64c1.61.28,2.5-.55,3.44-1.73l-1.71-1.04-1.73,1.74v1.02ZM662.96,698.02c-1.28-1.93-4.77-2.44-6.92-2.76.03,3.04,4.88,2.01,6.92,2.76ZM530.73,696.64h-12.45s-.05,2-.05,2l-4.11.42c1.35,1.06,5.77,1.69,7.29,1.62,1.34-.05,2.36-.91,3.61-1.12,1.88-.31,5.11.9,5.71-2.92ZM543.89,700.79c1.1.26,5.45-.74,5.52-1.72-.81-1-1.04-2.74-2.74-2.42l-2.78,4.14ZM386.58,697.51c-2.77-1.66-3.64,1.41-4.51,1.92-5.19,3.04-10.3,4.53-15.46,7.2-3.46,1.79-7.65,5.69-11.1,7.59-4.82,2.67-4.73,1.51-9.6,5.63-3.5,2.96-17.38,9.07-22.95,12.35-1.48.87-3.8.64-4.7,2.94l1.32,3.01c-4.62,2.39-4.63-.77-5.96-1.29-2.32-.9-6.25,4-5.08,5.41.15.19,2.29.15,2.99.66.76.56.41,2.27,1.48,2.82,2.03-.67,2.2-2.75,3.86-3.75,4.74-2.86,11.45-5.37,16.13-8.1,4.96-2.9,8.78-7.51,15.06-9.86,3.01-1.13,5.73-.57,7.77-1.23,1.13-.37,1.29-2.04,2.17-2.68,2.05-1.5,7.15-3.87,9.61-3.47.48.08.16,2.16,2.85,1.38l.37-3.43-2.76.69.69-2.07c-.5-.44-5.3,3.44-5.53.35l19.09-12.08c1.35-.26,1.57,1.11.98,2.03,1.03.6,5.17-1.72,6.24-2.41,1.79-1.16-1.34-1.67-2.03-2.17-.51-.37-.63-1.31-.89-1.47ZM797.96,698.03c-3.83-.88-4.77,3.49-1.39,1.72.46-.24,1.28-1.14,1.39-1.72ZM782.72,698.72l-3.66.02-2.57,2.74c2.5.1,6.02.6,6.22-2.76ZM791.03,698.72c-1.89,1.33-5.14-1.09-6.22,1.38,2.22.22,6.06,2.14,6.22-1.38ZM541.11,699.41h-1.38v2.07h1.38v-2.07ZM653.27,709.09c3.49,1.53,5.53-.38,7.99-.66,3.22-.36,7.21.62,9.99-1.76,0-1.01-7.65-3.21-8.6-3.13-1.46.14-3.28,2.24-4.74,2.93-1.73.82-4.81-.07-4.65,2.61ZM964.8,706.33c.24-2.05-2.16-2.08-3.45-2.76-1.1,1.02,3.04,3.14,3.45,2.76ZM481.58,704.26l-9.14,2.27-6.77,3.25c3.62,1.95,4.01-.48,6.04-1.22,2.97-1.07,9.17.25,9.87-4.31ZM630.42,710.49c-3.69.67-6.61-5.13-8.62-4.88l-3.84,5.55c2.83-1.27,6.97,1.48,8.59,1.41.63-.03,3.72-1.1,3.87-2.08ZM609.66,710.47c1.94.51,3.74,2.74,5.52.36l-5.19-1.72-.33,1.36ZM708.65,713.95c-7.1.14-15.48-7.25-21.45-.35-.02,2.03,11.43,2.17,3.45,6.93-1.06,2.01,4.8.72,5.93-.31.87-.8.71-1.98,1.21-2.59.43-.52,1.41-.63,1.87-1.22.57-.73,1.02-3.1,1.72-3.14,2.13-.13-2.16,5.46.75,6.13l5.17-.91,1.34-4.53ZM718.34,714.64c-3.37.33-5.52-2.78-8.99-2.08-.41,4.29,4.78,3.54,7.84,4.08l1.16-2ZM514.8,714.64c-1.27-.25-2.49-.83-3.83-.78-1.19.05-.6,1.11-2.04,1.49-3.28.86-7.37-.19-10.35.02-8.36.58-16.53,2.71-24.55,5.11-1.04.31-4.7-1-4.23,1.76,2.16-1.24,4,.03,5.81-.06,1.44-.07,3.15-.99,4.52-.98,1.88.01,3.66,1.47,7.26.98,4.62-.62,6.22-3.99,7.95-4.49,3.94-1.12,11.13,0,15.55-.48l3.89-2.58ZM821.49,714.64c-.41-.44-6.03,1.2-6.23,2.76,2.89-.85,3.65-.48,6.23.7v-3.45ZM677.44,717.34l-.28-2c-1.51,1.37-5.25.68-5.2,3.45l5.47-1.45ZM813.88,716.72l-2.76-.7v1.38s2.76,0,2.76,0v-.68ZM806.95,716.71c-1.79.14-4.66-.78-5.53,1.37,2.22-.39,5.47,2.06,5.53-1.37ZM1005.64,724.32c-.16-3.89-2.62-4.96-6.22-4.84-.21,3.15,3.34,5.16,6.22,4.84ZM374.27,721.56c-1.13-.99-7.53,2.38-8.92,3.18-.64.37-.86,1.56-1.51,1.95-.59.35-10.87,4.75-8.95,6.62l17.55-9.09,1.83-2.67ZM650.49,734.01c1.32-2.53-3.8-6.55-4.84-3.79l4.84,3.79ZM661.58,731.94c1.38-.37,1.56-1.48,1.37-2.77-1.38.37-1.56,1.48-1.37,2.77ZM323.05,752.69c2.34.15,4.57-.53,6.77-1.19,1.08-.32,7.41-2.41,7.75-2.63.68-.43.86-1.77,1.36-2.07.58-.34,1.82.65,2.79.05.43-.26,6.27-6.86,6.54-7.29s-.35-1.45.31-2.45c.76-1.16,3.84-2.08,3.54-3.42-.32-2-5.02-1.53-5.49-1.03-.34.36.92,4.03-3.15,6.89-3.72,2.61-11.44,5.23-15.69,7.84-.82.5-5.71,4.43-4.73,5.3ZM1005.46,750.13c.53.43.67,1.79,1.55,2.24,2.04,1.03,6.73-.27,4.9-2.82-1.64-2.28-7.6-3.68-10.07-5.16-3.46-2.08-7.63-7.23-11.19-9.57-1.97-1.29-8.16-3.67-9.21-.44-.93,2.86,2.99,2.11,3.36,2.49.28.28-.08,2.1.7,3.11.86,1.11,3.46.99,4.92,2.01,1.33.93,2.05,3.5,3.48,4.14,2.58,1.15,8.95,1.9,11.57,4.02ZM472.57,739.55l-7.45,1.2-.85,1.56c2.68.17,4.54.19,6.96-1.02,1.02-.51,1.68.01,1.34-1.74ZM983.41,741.02l-2,.25c.9.84,1.45,2.01,2.77,1.73l-.77-1.98ZM309.89,746.46c-2.47-3.95-7.33-3.89-3.78,1.39l3.78-1.39ZM943.34,746.46c1.32-1.23-2.77-3.1-2.75-1.03,0,.71,2.29,1.46,2.75,1.03ZM304.35,747.16h-2.07c.01,2.54,2.06,2.54,2.07,0ZM300.89,748.55c-3.89-.81-3.97,6.4-.33,3.47l.33-3.47ZM322.35,752.7h-2.76v1.38h2.76v-1.38ZM926.72,785.92l-2.76.7v1.37s2.76,0,2.76,0v-2.07ZM397.63,795.8c-2.35-1.46-1.83-.84-4.34-2.94s-7.3-.96-10.21-1.56c-4.61-.95-8.44-2.66-14-2.47-5.41.18-8.82,4.17-11.18,4.51-.94.14-1.99-.72-3.2-.41-.2.05-3.24,2.16-3.3,2.36-.93,2.99,5.47,2.68,7.14,3.24,1.36.46,1.95,2.23,3.08,2.52.74.19,13.41.83,15.08.84,3.76,0,5.52-2.82,8.65-.75,2.27-7.61,3.49-.53,3.81-.69,1.65-4.17,3.08-3.67,7.27-3.45.76,5.97-5.57,1.97-7.62,6.22,2,.1,6.25-1.52,7.88-1.21.83.16,1.67,1.64,2.68,2.08,1.97.87,12.99.57,12.96-1.21-4.86-1.57-8.64-6.55-13.87-5.54-.36-.4-.45-1.29-.83-1.53ZM852.65,810.14c-2.02.29-4.75-.84-6.63-.61-1.16.14-1.09-.49-.98,1.3l2.11.5-.03,1.58c.35.38,3.81-.94,4.54-1.32s1.32.37.99-1.44ZM435.8,811.61c-2.68-1.36-5.66,1.71-7.3,1.84-1.27.1-2.22-1.41-3.89-1.14-1.14.18-2.04,1.54-3.08,1.82-2.93.78-5.36-.13-9.04,1.37-1.03.42-1.88-.42-1.52,1.55,5.6-.61,11.33-.81,16.92-1.42,2.68-.29,4.95-2.45,8.69-.66l-.77-3.36ZM843.65,811.53c-1.18-1.12-4.05.79-3.45,2.76,1.19.61,5.01-1.29,3.45-2.76ZM931.57,828.14h-1.38v2.76h1.38v-2.76ZM795.18,835.75l-4.14,1.02c.91,1.65,4.6,1.16,4.14-1.02ZM774.42,851.67c-4.13-.04-6.45,2.96-8.3,6.22,3.73.63,8.8-2.04,8.3-6.22ZM660.18,862.73v-4.15h-.68v4.15h.68ZM491.76,862.82c-1.53.45-1.88,2.74-2.86,3.43-1.59,1.13-4.32.1-5.18,2.51l3.14,6.36c5.07,1.44,3.32-4.02,5.09-5.82,1.14-1.15,4.28-.62,4.81-2.13.89-2.5-3.05-4.92-5-4.35ZM453.19,868.27c-3.04-.24-3.56,2.26-3.46,4.84,2.45.13,6.28,1.62,5.54-2.07l-2-.05c-.21-.89-.07-1.82-.07-2.72,1,.08,2.28,1.73,3.42-.4-1.1-5.07-3.44-5.26-3.42.4ZM569.71,933.53c.52-.68,2.07-.71,2.48-2.07.57-1.9-1.37-3.17-1.04-5.76s3.21-8.18,4.24-11.06c.94-2.61,2.17-4.44,2.8-6.2,1.19-3.37-.49-9.32,4.19-9.71,3.13-.26,5.37,1.61,9.44-.19.62-.27,8.94-6.22,9.19-6.74,1.12-2.28-1.54-10.38-3.08-12.15-2.52-2.9-11.52-1.19-15.45-1.86-8.94-1.52-19.49-5.3-28.71-7.29-5.94-1.29-12.92-1.47-18.92-3.23-1.71-.5-3.57-2.23-4.62-2.38-1.34-.2-6.54,2.63-8.21,2.71-1.58.08-2.35-1.36-3.4-1.39-1.12-.03-2.06,1.24-3.34,1.2-3.2-.11-5.27-3.6-10.49-2.58-3.11.61-1.95,2.97-2.77,4.84-1.58,3.58-4.51,7.71-3.13,11.75-5.42-1.12-4.08,3.99-6.22,7.28-1.05,1.61-3.56,3.56-5.53,3.83l1.26,3.09c-.76,1.23-2.1,1.33-2.88,2.61-1.13,1.83-.92,4.7-1.27,5.24-.23.35-2.43.61-3.31,1.2-1,.67-1.58,1.76-2.48,2.37-1.87,1.27-5.05,1.36-4.5,4.16-1.74.33-3.08-2.1-4.5-2.08-1.04.02-1.92,1.57-2.75,1.4-.96-.21-3.2-6.59-3.83-7.84-.22-.45-1.37-.44-1.42-.85-.23-2.02,1.73-2.44,2.01-3.56.47-1.85-2.12-4.6,1.38-6.88l-1.62-3c-1.52.3-2.19,2.37-2.93,2.81-1.29.78-4.01-.99-5.37,2.03-.85,1.9.89,6.96-1.17,8.17-.65.38-1.99-.08-2.88.24-.52.19-2.98,3.31-4.61,3.34l1.38-3.45c-1.72.14-2.63.35-3.14-1.4-1.02-.77-4.95,4.18-5.07,4.67-.36,1.35.86,3.37-.1,5.03,3.48-1.28,6.67,1.37,6.92,4.84l-3.46.71c1.71,3.16-.69,4.85,0,7.6l-4.15-.68c-1.85,2.96,3.37,2.59,1.44,5.88-2.44,4.16-6.03.4-7.37,2.41-.02,3.99,1.27,2.22,3.67,2.99s1.73,4.92-1.2,4.62l.35-2.76-3.8,3.11c4.08,3.02.53,3.17.16,4.93-.14.69.54,1.69.24,3.03-.62,2.7-4.94,8.15-8.03,7.62-.02,7.21,2.86,4.31,5.56,5.86,1.51.87,1.43,7.31,4.83,7.28,1.01-1.2-2.26-7.92-2.06-10.01.03-.34,2.32-4.61,2.8-5.52.51-.97.36-2.08,2.03-1.77.01,2.48-.28,4.87-2.76,5.88l4.04,1.15,1.5,5.43c4.28-.17,7.43-3.45,11.76-1.37.01,2.28-3.03,1.78-2.94,4.66l-6.05,1.55c2.51.82,11.78,5.11,13.74,3.36.68-.61.66-5.14,4.25-3.35.46-2.24-1.64-.44-1.44-3.09.43-5.61,5.45-2.74,4.2,3.42-.27,1.34-1.54,1.76-1.37,3.13,4.92,1.82,9.71-2.71,13.11-3.16,2.14-.28,6.27,1.81,4.76-3.27-.7-2.35-7.87-5.1-1-6.68,3.33,3.28,3.08,8.04,3.14,12.31-.32.4-8.16,3-6.17,4.94,1.3,1.26,3.81-1.68,4.64-1.93,1.2-.36,2.69.08,3.85-.31,1.86-.63,11.18-4.47,11.48-5.78.2-.87-1.02-2.55-.53-3.69l2.72-1.11c-4.69-7.94,5.33-14.09,12.32-14.02l1.61,3.28,2.67-.65c.08,3.32-2.87.3-4.14,2.42l4.83,2.09c.65,2.44-4.22,3.75-3.46,6.56.72.68,8.43-2.45,9.64-3.16,3.45-2.03,5.84-8.96,10.81-5.86l.97,5.5c-4.08.48-4.6,4-6.5,6.33-1.03,1.26-2.6,1.51-3.15,2.72,6.15.54,11.63-2.71,17.73-2.7,1.89,0,3.17,1.11,4.84,1.29,4.33.47,8.88-.77,11.25-4.56,3.88-6.18,6.22-14.3,8.95-20.8.48-1.14,2.75-6.43,3.12-6.93ZM482.27,868.97c-.46-.43-2.74.32-2.75,1.03-.02,2.06,4.07.19,2.75-1.03ZM446.96,877.26c.22-1.31-.81-2.3-2.07-2.07v2.07s2.07,0,2.07,0ZM484.86,883.33c.82-.72.82-3.93,2.62-4.68,1.07-2.4-8.51-2.72-10.05-2.76-1.34,5.34,9.41,1.22,5.91,6.26-.55.79-2.68.52-3.1,1.79l.73,4.32,2.68.08-1.38-3.78c.3-.98,2.11-.8,2.59-1.23ZM462.88,878.66c-.37-.37-5.23.7-5.94,1.32-1,.86-.8,2.5-1.72,3.82-1.5,2.16-4.94,2.86-5.33,3.32-.7.82-1.87,5.57-2.62,6.71s-3.08,1.03-2.37,3.5c3.06.29,2.41.15,3.25-1.93.43-1.07-.35-1.88,1.59-1.53l-.69,4.84h3.46c.32-1.31-.65-2.72-.61-3.84.17-4.8,3.21-6.22,5.07-9.37.47-.8.19-2.19.51-2.58.54-.67,6.5-.46,5.41-4.27ZM476.88,883.31c2.09,1.04,3.69-1.72,1.94-2.96l-6.24-.31c.5,1.71,2.45,1.53,3.62,2.12.53.27.56,1.09.67,1.14ZM846.41,882.11h-1.37c.9,1.49.54,3.71,1.34,5.06.59,1.01,4.86,5.26,5.85,6.78,1.28,1.95,1.58,5.04,3.88,6.15,1.4-2.58-3.29-6.18-3.43-6.73-.28-1.09.22-2.29-.38-3.65-1.07-2.44-5.82-4.52-5.89-7.62ZM477.42,891.11c-.74-.72-6.85,3.27-7.3,4.15-.77,1.48.36,2.61.18,3.69-.35,2.09-2.26,2.64.21,5.99,1.59-.94.21-4.18.77-5.79.32-.91,7.63-3.76,6.14-8.04ZM831.88,909.1l-4.15-1.37v2.07s4.15-.7,4.15-.7ZM427.58,916.71v-2.07s-3.46,1.73-3.46,1.73l3.46.34ZM788.96,917.42l1.05,1.37,1.71-1.03-1.02-1.02-1.73.69ZM435.88,923.64c-2.88-.51-.19,3.34-.68,4.85,2.9.48.47-3.39.68-4.85ZM802.8,923.64c-1.36,1.06-5.47-1.06-4.84,1.38,1.29-.42,5.37,1.24,4.84-1.38ZM872.72,929.87c-2.62-.65-8.11-2.28-7.61,2.06,2.22-.5,6.27.06,7.61-2.06ZM849.88,932.63c-.73-1.91-3.13-1.9-4.14-.34l1.04,1.04,3.1-.7ZM869.26,934.71h-2.07s0,3.45,0,3.45h1.37s.7-3.45.7-3.45ZM508.57,952.7c-1.11-.92-4.26,2.78-4.86,3.79-.44.74-1.64,4.23-1.36,4.52l9.67-3.11c-.51-1.08-2.07-.71-2.58-1.21-.63-.62-.72-3.86-.88-3.99ZM410.96,972.77c.29-.31.74-2.75.69-3.45-1.59.44-1.47,2.19-1.37,3.46.22-.04.59.09.68,0Z"/>
  <path d="M688.57,794.91c-3.66-.24-7.07-2.29-10.08-2.73-5.03-.72-6.25-.73-11.21-1.94-3.02-.74-6.17-1.15-9.19-1.89l-.63-7.67c-6.4.44-9.73-4.88-14.62-7.53s-6.29-2.97-10.37-7.66c-1.41-1.63-3.61-1.43-2.47-5.19,1.46-4.77,4.3,1.18,7.32.71-1.33-3-2.14-4.3-.21-7.42.37-.6,5.63-5.26,6.28-5.55,5.07-2.3,10.92-.21,14.65,3.68,1.21,1.26,1.63,3.82,3.31,4.33,2.01.6,3.36-.57,4.74-.5,1,.05,2.05,1.25,4.09,1.38,2.29.15,4.46-.96,6.27-.83,1.51.1,2.66,1.5,3.35,1.38,1.62-.28,7.66-5.76,8.54-6.02,3.72-1.09,11.24-1.25,15.09-1.66,10.43-1.11,20.81-2.38,31.01-4.74,1.52,3.23,7.64,2.65,5.58,7.46-.2.46-4.6,4.11-5.3,4.47-2.98,1.54-6.29.39-8.1,2.62,1.58-.08,3.1.16,4.62.58,8.05,2.22,11.51,3.74,19.58,1.1,2.53-.82,7.46.52,8.97,2.91-1.36,1.54-2.54,6.29-3.7,7.23-1.24,1.01-4.55,1.08-6.4,1.9-6.21,2.76-12.58,8.55-17.6,10.78-3.35,1.49-9.19,1.16-7.55,6.64-2.22.55-.63-2.08-3-1.27l-5.3,4.39c3.8.86,10.34-3.57,12.79,1.74,1.99,4.32-2.73,4.13-5.51,6.22l-2.08-4.84c-1.74,1.06-1.89,4.52-2.78,5.53s-3.98.61-4.87,2.79l1.1,5.77c-.92.8-1.82,0-1.43,1.82,1.11-.04,2.91-.13,3.46,1.05,1.17,2.51-3.28,1.39-2.76,3.44.26,1.02,5.73,1.27,2.75,4.84-2.11,2.53-5.91,3.68-7.94.37l-2.17,4.74-7.84-.63c1.48-3.72-2.63-8.45-2.78-10.73-.26-3.86,2.46-9.34,1.06-13.51-1.22-3.63-8.7-4.95-8.7-7.57,1.62.1,3.69.44,4.83-1.04-1.5-2.67-4.82-1.93-4.83,1.04ZM722.49,753.39c-.43-.46-2.28,1.09-3.16,1.33-5.43,1.51-13.07.56-16.91,4.89l2.74.07c.35,5.54,2.61-1.27,3.48-1.81,1.45-.89,9.66-.31,12.67-1.87,1.1-.57,1.8-1.96,1.19-2.61ZM683.73,758.93l-3.13-.68-1.01,1.02c1.01,1.56,3.41,1.57,4.14-.34ZM673.35,766.53c3.29.66,7.15,2.82,5.4-2.97s-4.99-.42-5.4,2.97ZM701.04,766.54c1.38-.37,1.56-1.48,1.37-2.77-1.38.37-1.56,1.48-1.37,2.77ZM690.64,764.46c-2.01-.54-1.61,2.23-2.07,3.46h2.76l-.7-3.46ZM696.88,767.24l-4.15.69v.68c1.52.04,3.61.38,4.15-1.37ZM732.18,772.08c.55-2.33,1.14-4.57-2.07-4.84.47,1.18-.18,5.33,2.07,4.84ZM711.26,770.17c.63.61.54,2.32,1.55,2.95.32.2,6.66,1.66,7.36,1.69,1.51.08,8.12-1.09,8.54-2.44-.02-4.23-3.93-2.61-6.5-3.11-5.42-1.06-5.27-.68-10.41-.61-.96.01-3.39-1.08-3.83-.72-1.59,1.32,2.82,1.78,3.3,2.24ZM705.88,778.31c-2.09.66-4.99-.72-6.61-.62-.98.06-1.72,1.11-2.76,1.28-5.28.88-11.72-2.74-16.93-3.43-2.06,10.26,6.67,5.76,10.37,8.66,2.31,1.81.59,7.86,5.22,7.95,2.73.06.81-3.4.95-5.2.42-5.54,8.42-4.35,9.76-8.64ZM715.57,793.53c-.4-.4-2.06.58-2.06,1.03,0,1.92,3.11.01,2.06-1.03ZM701.03,794.92h-4.15v.68h4.15v-.68ZM707.96,817.75l-3.11-11.76c-3.41,2.64-.46,6.01-.51,8.8-.02,1.3-1.51,1.58-1.22,2.95h4.84ZM707.95,819.84c-1.99-.17-5.39-2.06-5.53,1.37,1.54-.07,4.83.43,5.53-1.37Z"/>
  <path d="M751.48,925.12c.27,1.99.58,3.05,2.86,2.67v-2.78c4.63,1.92,9.43-5.39,11.42,2.08,1.74-2.14,3.77-3.14,6.58-2.76l-.78,3.37-2.68.07v2.78s-7.19-1.23-7.19-1.23c-1.98.37-2.01,6.83-5.96,2.94l1.38-3.79h-2.76s-.66,3.86-.66,3.86c-.27.18-6.16.39-6.47.33-.93-.2-.82-2.72-2.56-2.12.36,3.46-1.95,2.17-3.29,2.96-.5.3-.28,1.61-1.9,1.92-2.14.41-4.23-.82-6.24-.78-10.76.22-23.27,2.06-33.93,1.86-1.22-.02-2.71-1.76-4.21-1.82s-2.1,1.16-3.25,1.22c-5.34.28-13.89-.52-20.2-.48-8.45.06-16.94-.76-25.3.67l.69,2.07c-3.71-1.49-5.2-.07-8.12.54-2.36.49-3.94-.29-6.11,1.54-.6.5-.82,1.75-1.14,1.94-3.16,1.81-17.2-1.32-21.7-1.27-2.15.02-2.6,1.79-3.41,1.89-2.27.28-4.82-4.09-6.25.23-2.23-3.45-9.94-5.13-6.93-11.08.11-.22,3.37-3.27,3.64-3.46,2.29-1.58,12.31-5.24,15.07-5.52,12.19-1.23,26.66-2.22,38.75-1.39,26.51,1.82,56.09,4.91,82.42,4.17,6.02-.17,11.96-2.1,18.23-.62ZM740.49,926.41c-2.22-1.96-3.13,3.72-.69,1.73.53-.43,1.03-1.42.69-1.73Z"/>
  <path d="M1022.95,884.2c-1.22,3.36-1.33,4.06-4.84,5.89-.32,1.88,1.8.72,3,1.03.54.14.45,1.38.86,1.4,1.26.08,3.75-1.6,5.48-1.41,1.48.16,1.95,1.73,2.92,2,2.5.68,5.05-4.63,10.8-3.23,1.3.32,2.18,1.61,3.07,1.8,2.62.56,10.31-.93,13.03-1.22,12.06-1.26,26.93.99,39.42,2.05,3.4.29,9.04,1.88,11.92,1.87,1.77,0,3.03-1.74,4.75-1.85s3.15,1.21,4.78,1.25c6.86.19,13.29.78,20.1.81,3.48.01,5.89,2.43,9.18,2.93,3.79,4.48-1.34,9.05-5.8,9.49-3.4.33-8.75-1.06-12.38-1.21-5.84-.24-11.55.01-17.43.29-1.91.09-4.67-1.25-6.48-.06-.5.33-.48,1.66-1.12,1.77-1.76.32-5.87-2.44-7.6-2.62-17.46-1.83-29.54-1.29-46.99-.21-5.21.32-9.29-1.57-13.82-2.09-7.29-.84-22.79,1.93-28.25-.82-2.7-1.36-5.28-4.7-3.33-7.7,1.94-2.97,11.98.58,8.54-4.26l10.21-5.88Z"/>
  <path d="M1060.14,859.08c-1.93,1.2-6.4-.06-7.42,2.27,3.1.67,5.91-1,8.73-1.3,6.27-.68,13.75-.74,19.97-2.19,7.58-1.77,15.95-6.39,24.29-6.9,2.66-.16,9.76.81,9.23,4.35-.78,5.25-8.96,6.22-12.92,7.22-3.38.85-5.56,1.05-8.65,1.73-1.78.39-4.45,3.25-6.92,4.15-9.38,3.45-30.7,9.43-40.15,7.33-1.87-.42-2.74-2.23-4.13-2.79-8.5-3.44-27.12,8.59-30.26-7.15-.78-.61-4.94,1.98-6.59-1.69-1.84-4.1,1.45-3.6,3.5-5.47,1.32-1.21,1.87-3.81,2.81-4.14,1.46-.51,3.17.63,4.68.57,4.36-.18,9.78.44,13.24.09,2.65-.26,5.57-2.64,7.64-2.77,2.83-.17,6.61,1.16,10.31.62,4.85-.71,7.11-5.09,12.42-1.95,3.19,1.88,3.04,6.27.23,8.02Z"/>
  <path d="M716.06,827.55c.66-.15,4.42.59,5.05.93,1.52.82,1.16,3.25,2.52,3.71,2.69.9,8.92-.27,9.82,4.06.57,2.75-.92,4.19-3.1,5.61s-11.88,4.01-14.51,4.24c-3.03.27-6.28-1.61-8.93-1.43-1.36.09-5.96.66-7.43.89-2.05.33-7.93,3.37-9.87,3.3-.73-.02-4.74-1.97-6.24-2.04-3.59-12.5,9.72-9.14,16.46-11.25,1.71-.54,2.75-1.82,4.5-2.42,2.64-.9,5.31-.41,7.31-1,1.71-.51,2.56-4.17,4.42-4.6Z"/>
  <path d="M684.32,815.07c2.02,3.55-8.1,3.08-5.78,6.83h3.8c.3,4.35-8.66,5.34-11.39,4.84-2.75-.5-5.63-4.15-5.11-7.1.69-3.91,3.72-2.78,6.16-3.59s3.36-3.91,7.27-3.75c.8.03,4.91,2.52,5.06,2.77Z"/>
  <path d="M349.58,900.01c-.11,5.57,1.13,11.86-4.14,15.22-2.56-4.03,2.6-5.75,3.34-8.79.35-1.44-2.35-6.83.8-6.43Z"/>
  <polygon points="234.66 972.67 235.68 972.68 238.11 974.4 236.4 975.43 234.67 973.7 234.66 972.67"/>
</svg>